<?xml version="1.0" encoding="utf-8" standalone="no"?>
<!DOCTYPE svg PUBLIC "-//W3C//DTD SVG 1.1//EN"
  "http://www.w3.org/Graphics/SVG/1.1/DTD/svg11.dtd">
<!-- Created with matplotlib (https://matplotlib.org/) -->
<svg height="432pt" version="1.1" viewBox="0 0 576 432" width="576pt" xmlns="http://www.w3.org/2000/svg" xmlns:xlink="http://www.w3.org/1999/xlink">
 <metadata>
  <rdf:RDF xmlns:cc="http://creativecommons.org/ns#" xmlns:dc="http://purl.org/dc/elements/1.1/" xmlns:rdf="http://www.w3.org/1999/02/22-rdf-syntax-ns#">
   <cc:Work>
    <dc:type rdf:resource="http://purl.org/dc/dcmitype/StillImage"/>
    <dc:date>2021-09-29T15:12:32.410752</dc:date>
    <dc:format>image/svg+xml</dc:format>
    <dc:creator>
     <cc:Agent>
      <dc:title>Matplotlib v3.3.2, https://matplotlib.org/</dc:title>
     </cc:Agent>
    </dc:creator>
   </cc:Work>
  </rdf:RDF>
 </metadata>
 <defs>
  <style type="text/css">*{stroke-linecap:butt;stroke-linejoin:round;}</style>
 </defs>
 <g id="figure_1">
  <g id="patch_1">
   <path d="M 0 432 
L 576 432 
L 576 0 
L 0 0 
z
" style="fill:#ffffff;"/>
  </g>
  <g id="axes_1">
   <g id="patch_2">
    <path d="M 72 384.48 
L 518.4 384.48 
L 518.4 51.84 
L 72 51.84 
z
" style="fill:#ffffff;"/>
   </g>
   <g id="matplotlib.axis_1">
    <g id="xtick_1">
     <g id="line2d_1">
      <defs>
       <path d="M 0 0 
L 0 3.5 
" id="m35482d949c" style="stroke:#000000;stroke-width:0.8;"/>
      </defs>
      <g>
       <use style="stroke:#000000;stroke-width:0.8;" x="72" xlink:href="#m35482d949c" y="384.48"/>
      </g>
     </g>
     <g id="text_1">
      <!-- 0 -->
      <g transform="translate(68.81875 399.078438)scale(0.1 -0.1)">
       <defs>
        <path d="M 31.78125 66.40625 
Q 24.171875 66.40625 20.328125 58.90625 
Q 16.5 51.421875 16.5 36.375 
Q 16.5 21.390625 20.328125 13.890625 
Q 24.171875 6.390625 31.78125 6.390625 
Q 39.453125 6.390625 43.28125 13.890625 
Q 47.125 21.390625 47.125 36.375 
Q 47.125 51.421875 43.28125 58.90625 
Q 39.453125 66.40625 31.78125 66.40625 
z
M 31.78125 74.21875 
Q 44.046875 74.21875 50.515625 64.515625 
Q 56.984375 54.828125 56.984375 36.375 
Q 56.984375 17.96875 50.515625 8.265625 
Q 44.046875 -1.421875 31.78125 -1.421875 
Q 19.53125 -1.421875 13.0625 8.265625 
Q 6.59375 17.96875 6.59375 36.375 
Q 6.59375 54.828125 13.0625 64.515625 
Q 19.53125 74.21875 31.78125 74.21875 
z
" id="DejaVuSans-48"/>
       </defs>
       <use xlink:href="#DejaVuSans-48"/>
      </g>
     </g>
    </g>
    <g id="xtick_2">
     <g id="line2d_2">
      <g>
       <use style="stroke:#000000;stroke-width:0.8;" x="144" xlink:href="#m35482d949c" y="384.48"/>
      </g>
     </g>
     <g id="text_2">
      <!-- 5 -->
      <g transform="translate(140.81875 399.078438)scale(0.1 -0.1)">
       <defs>
        <path d="M 10.796875 72.90625 
L 49.515625 72.90625 
L 49.515625 64.59375 
L 19.828125 64.59375 
L 19.828125 46.734375 
Q 21.96875 47.46875 24.109375 47.828125 
Q 26.265625 48.1875 28.421875 48.1875 
Q 40.625 48.1875 47.75 41.5 
Q 54.890625 34.8125 54.890625 23.390625 
Q 54.890625 11.625 47.5625 5.09375 
Q 40.234375 -1.421875 26.90625 -1.421875 
Q 22.3125 -1.421875 17.546875 -0.640625 
Q 12.796875 0.140625 7.71875 1.703125 
L 7.71875 11.625 
Q 12.109375 9.234375 16.796875 8.0625 
Q 21.484375 6.890625 26.703125 6.890625 
Q 35.15625 6.890625 40.078125 11.328125 
Q 45.015625 15.765625 45.015625 23.390625 
Q 45.015625 31 40.078125 35.4375 
Q 35.15625 39.890625 26.703125 39.890625 
Q 22.75 39.890625 18.8125 39.015625 
Q 14.890625 38.140625 10.796875 36.28125 
z
" id="DejaVuSans-53"/>
       </defs>
       <use xlink:href="#DejaVuSans-53"/>
      </g>
     </g>
    </g>
    <g id="xtick_3">
     <g id="line2d_3">
      <g>
       <use style="stroke:#000000;stroke-width:0.8;" x="216" xlink:href="#m35482d949c" y="384.48"/>
      </g>
     </g>
     <g id="text_3">
      <!-- 10 -->
      <g transform="translate(209.6375 399.078438)scale(0.1 -0.1)">
       <defs>
        <path d="M 12.40625 8.296875 
L 28.515625 8.296875 
L 28.515625 63.921875 
L 10.984375 60.40625 
L 10.984375 69.390625 
L 28.421875 72.90625 
L 38.28125 72.90625 
L 38.28125 8.296875 
L 54.390625 8.296875 
L 54.390625 0 
L 12.40625 0 
z
" id="DejaVuSans-49"/>
       </defs>
       <use xlink:href="#DejaVuSans-49"/>
       <use x="63.623047" xlink:href="#DejaVuSans-48"/>
      </g>
     </g>
    </g>
    <g id="xtick_4">
     <g id="line2d_4">
      <g>
       <use style="stroke:#000000;stroke-width:0.8;" x="288" xlink:href="#m35482d949c" y="384.48"/>
      </g>
     </g>
     <g id="text_4">
      <!-- 15 -->
      <g transform="translate(281.6375 399.078438)scale(0.1 -0.1)">
       <use xlink:href="#DejaVuSans-49"/>
       <use x="63.623047" xlink:href="#DejaVuSans-53"/>
      </g>
     </g>
    </g>
    <g id="xtick_5">
     <g id="line2d_5">
      <g>
       <use style="stroke:#000000;stroke-width:0.8;" x="360" xlink:href="#m35482d949c" y="384.48"/>
      </g>
     </g>
     <g id="text_5">
      <!-- 20 -->
      <g transform="translate(353.6375 399.078438)scale(0.1 -0.1)">
       <defs>
        <path d="M 19.1875 8.296875 
L 53.609375 8.296875 
L 53.609375 0 
L 7.328125 0 
L 7.328125 8.296875 
Q 12.9375 14.109375 22.625 23.890625 
Q 32.328125 33.6875 34.8125 36.53125 
Q 39.546875 41.84375 41.421875 45.53125 
Q 43.3125 49.21875 43.3125 52.78125 
Q 43.3125 58.59375 39.234375 62.25 
Q 35.15625 65.921875 28.609375 65.921875 
Q 23.96875 65.921875 18.8125 64.3125 
Q 13.671875 62.703125 7.8125 59.421875 
L 7.8125 69.390625 
Q 13.765625 71.78125 18.9375 73 
Q 24.125 74.21875 28.421875 74.21875 
Q 39.75 74.21875 46.484375 68.546875 
Q 53.21875 62.890625 53.21875 53.421875 
Q 53.21875 48.921875 51.53125 44.890625 
Q 49.859375 40.875 45.40625 35.40625 
Q 44.1875 33.984375 37.640625 27.21875 
Q 31.109375 20.453125 19.1875 8.296875 
z
" id="DejaVuSans-50"/>
       </defs>
       <use xlink:href="#DejaVuSans-50"/>
       <use x="63.623047" xlink:href="#DejaVuSans-48"/>
      </g>
     </g>
    </g>
    <g id="xtick_6">
     <g id="line2d_6">
      <g>
       <use style="stroke:#000000;stroke-width:0.8;" x="432" xlink:href="#m35482d949c" y="384.48"/>
      </g>
     </g>
     <g id="text_6">
      <!-- 25 -->
      <g transform="translate(425.6375 399.078438)scale(0.1 -0.1)">
       <use xlink:href="#DejaVuSans-50"/>
       <use x="63.623047" xlink:href="#DejaVuSans-53"/>
      </g>
     </g>
    </g>
    <g id="xtick_7">
     <g id="line2d_7">
      <g>
       <use style="stroke:#000000;stroke-width:0.8;" x="504" xlink:href="#m35482d949c" y="384.48"/>
      </g>
     </g>
     <g id="text_7">
      <!-- 30 -->
      <g transform="translate(497.6375 399.078438)scale(0.1 -0.1)">
       <defs>
        <path d="M 40.578125 39.3125 
Q 47.65625 37.796875 51.625 33 
Q 55.609375 28.21875 55.609375 21.1875 
Q 55.609375 10.40625 48.1875 4.484375 
Q 40.765625 -1.421875 27.09375 -1.421875 
Q 22.515625 -1.421875 17.65625 -0.515625 
Q 12.796875 0.390625 7.625 2.203125 
L 7.625 11.71875 
Q 11.71875 9.328125 16.59375 8.109375 
Q 21.484375 6.890625 26.8125 6.890625 
Q 36.078125 6.890625 40.9375 10.546875 
Q 45.796875 14.203125 45.796875 21.1875 
Q 45.796875 27.640625 41.28125 31.265625 
Q 36.765625 34.90625 28.71875 34.90625 
L 20.21875 34.90625 
L 20.21875 43.015625 
L 29.109375 43.015625 
Q 36.375 43.015625 40.234375 45.921875 
Q 44.09375 48.828125 44.09375 54.296875 
Q 44.09375 59.90625 40.109375 62.90625 
Q 36.140625 65.921875 28.71875 65.921875 
Q 24.65625 65.921875 20.015625 65.03125 
Q 15.375 64.15625 9.8125 62.3125 
L 9.8125 71.09375 
Q 15.4375 72.65625 20.34375 73.4375 
Q 25.25 74.21875 29.59375 74.21875 
Q 40.828125 74.21875 47.359375 69.109375 
Q 53.90625 64.015625 53.90625 55.328125 
Q 53.90625 49.265625 50.4375 45.09375 
Q 46.96875 40.921875 40.578125 39.3125 
z
" id="DejaVuSans-51"/>
       </defs>
       <use xlink:href="#DejaVuSans-51"/>
       <use x="63.623047" xlink:href="#DejaVuSans-48"/>
      </g>
     </g>
    </g>
    <g id="text_8">
     <!-- UAV speed V(m/s) -->
     <g transform="translate(199.682187 422.744375)scale(0.22 -0.22)">
      <defs>
       <path d="M 65.828125 30.8125 
Q 65.828125 -1.265625 36.71875 -1.265625 
Q 8.84375 -1.265625 8.84375 29.6875 
L 8.84375 75.640625 
L 18.609375 75.640625 
L 18.609375 30.125 
Q 18.609375 7.421875 37.640625 7.421875 
Q 56.0625 7.421875 56.0625 29.390625 
L 56.0625 75.640625 
L 65.828125 75.640625 
z
" id="MicrosoftYaHei-85"/>
       <path d="M 69.1875 0 
L 58.40625 0 
L 50.6875 20.703125 
L 19.1875 20.703125 
L 11.921875 0 
L 1.125 0 
L 29.9375 75.640625 
L 40.375 75.640625 
z
M 47.65625 29.25 
L 36.234375 60.6875 
Q 35.6875 62.203125 35.0625 65.96875 
L 34.8125 65.96875 
Q 34.28125 62.546875 33.59375 60.6875 
L 22.265625 29.25 
z
" id="MicrosoftYaHei-65"/>
       <path d="M 66.75 75.640625 
L 38.96875 0 
L 28.125 0 
L 0.875 75.640625 
L 11.71875 75.640625 
L 32.078125 16.5 
Q 33.109375 13.578125 33.59375 9.71875 
L 33.84375 9.71875 
Q 34.234375 13.09375 35.546875 16.609375 
L 56.296875 75.640625 
z
" id="MicrosoftYaHei-86"/>
       <path id="MicrosoftYaHei-32"/>
       <path d="M 5.515625 11.671875 
Q 12.75 6.453125 21.09375 6.453125 
Q 32.28125 6.453125 32.28125 13.765625 
Q 32.28125 16.890625 29.828125 18.921875 
Q 27.390625 20.953125 19.921875 23.734375 
Q 10.9375 27.34375 8.25 30.875 
Q 5.5625 34.421875 5.5625 39.453125 
Q 5.5625 46.625 11.640625 50.953125 
Q 17.71875 55.28125 26.609375 55.28125 
Q 33.5 55.28125 39.40625 52.875 
L 39.40625 43.65625 
Q 33.34375 47.5625 25.6875 47.5625 
Q 21.09375 47.5625 18.203125 45.5625 
Q 15.328125 43.5625 15.328125 40.28125 
Q 15.328125 37.0625 17.40625 35.25 
Q 19.484375 33.453125 26.609375 30.609375 
Q 35.640625 27.25 38.8125 23.625 
Q 42 20.015625 42 14.703125 
Q 42 7.28125 35.90625 3 
Q 29.828125 -1.265625 20.171875 -1.265625 
Q 11.765625 -1.265625 5.515625 1.90625 
z
" id="MicrosoftYaHei-115"/>
       <path d="M 18.109375 7.625 
L 18.109375 -24.859375 
L 8.546875 -24.859375 
L 8.546875 54 
L 18.109375 54 
L 18.109375 44.671875 
L 18.3125 44.671875 
Q 24.65625 55.28125 36.859375 55.28125 
Q 47.21875 55.28125 53.09375 48.015625 
Q 58.984375 40.765625 58.984375 28.5625 
Q 58.984375 15.09375 52.3125 6.90625 
Q 45.65625 -1.265625 34.375 -1.265625 
Q 23.96875 -1.265625 18.3125 7.625 
z
M 18.0625 22.265625 
Q 18.0625 15.671875 22.3125 11.15625 
Q 26.5625 6.640625 32.953125 6.640625 
Q 40.578125 6.640625 44.875 12.5 
Q 49.171875 18.359375 49.171875 28.71875 
Q 49.171875 37.453125 45.15625 42.40625 
Q 41.15625 47.359375 34.234375 47.359375 
Q 27.15625 47.359375 22.609375 42.328125 
Q 18.0625 37.3125 18.0625 29.4375 
z
" id="MicrosoftYaHei-112"/>
       <path d="M 52.546875 24.5625 
L 14.75 24.5625 
Q 14.984375 15.921875 19.46875 11.203125 
Q 23.96875 6.5 32.03125 6.5 
Q 41.109375 6.5 48.6875 12.3125 
L 48.6875 3.765625 
Q 41.546875 -1.265625 29.78125 -1.265625 
Q 18.0625 -1.265625 11.5 6.15625 
Q 4.9375 13.578125 4.9375 26.765625 
Q 4.9375 39.15625 12.140625 47.21875 
Q 19.34375 55.28125 30.03125 55.28125 
Q 40.625 55.28125 46.578125 48.46875 
Q 52.546875 41.65625 52.546875 29.390625 
z
M 42.96875 32.234375 
Q 42.921875 39.546875 39.5 43.546875 
Q 36.078125 47.5625 29.890625 47.5625 
Q 24.171875 47.5625 20 43.3125 
Q 15.828125 39.0625 14.75 32.234375 
z
" id="MicrosoftYaHei-101"/>
       <path d="M 55.421875 0 
L 45.84375 0 
L 45.84375 8.984375 
L 45.65625 8.984375 
Q 39.75 -1.265625 27.296875 -1.265625 
Q 17.046875 -1.265625 10.984375 6.03125 
Q 4.9375 13.328125 4.9375 25.734375 
Q 4.9375 39.109375 11.765625 47.1875 
Q 18.609375 55.28125 29.640625 55.28125 
Q 40.671875 55.28125 45.65625 46.6875 
L 45.84375 46.6875 
L 45.84375 79.9375 
L 55.421875 79.9375 
z
M 45.90625 32.125 
Q 45.90625 38.625 41.625 42.984375 
Q 37.359375 47.359375 31.109375 47.359375 
Q 23.484375 47.359375 19.09375 41.671875 
Q 14.703125 35.984375 14.703125 26.171875 
Q 14.703125 17.140625 18.921875 11.890625 
Q 23.140625 6.640625 30.171875 6.640625 
Q 37.109375 6.640625 41.5 11.78125 
Q 45.90625 16.9375 45.90625 24.609375 
z
" id="MicrosoftYaHei-100"/>
       <path d="M 23.921875 -17.1875 
Q 7.46875 1.5625 7.46875 28.859375 
Q 7.46875 56.15625 23.921875 75.640625 
L 32.375 75.640625 
Q 15.875 55.375 15.875 28.953125 
Q 15.875 2.59375 32.28125 -17.1875 
z
" id="MicrosoftYaHei-40"/>
       <path d="M 86.28125 0 
L 76.703125 0 
L 76.703125 31 
Q 76.703125 39.796875 73.96875 43.578125 
Q 71.234375 47.359375 64.984375 47.359375 
Q 59.71875 47.359375 55.953125 42.421875 
Q 52.203125 37.5 52.203125 30.765625 
L 52.203125 0 
L 42.625 0 
L 42.625 31.984375 
Q 42.625 47.359375 30.765625 47.359375 
Q 25.296875 47.359375 21.703125 42.671875 
Q 18.109375 37.984375 18.109375 30.71875 
L 18.109375 0 
L 8.546875 0 
L 8.546875 54 
L 18.109375 54 
L 18.109375 45.453125 
L 18.3125 45.453125 
Q 24.078125 55.28125 35.15625 55.28125 
Q 40.578125 55.28125 44.71875 52.296875 
Q 48.875 49.3125 50.484375 44.234375 
Q 56.5 55.28125 68.453125 55.28125 
Q 86.28125 55.28125 86.28125 33.296875 
z
" id="MicrosoftYaHei-109"/>
       <path d="M 43.609375 75.640625 
L 7.328125 -12.546875 
L -1.609375 -12.546875 
L 34.671875 75.640625 
z
" id="MicrosoftYaHei-47"/>
       <path d="M 1.21875 -17.1875 
Q 17.671875 2.546875 17.671875 28.953125 
Q 17.671875 55.421875 1.125 75.640625 
L 9.625 75.640625 
Q 26.125 56.296875 26.125 28.859375 
Q 26.125 1.421875 9.625 -17.1875 
z
" id="MicrosoftYaHei-41"/>
      </defs>
      <use xlink:href="#MicrosoftYaHei-85"/>
      <use x="72.533203" xlink:href="#MicrosoftYaHei-65"/>
      <use x="136.769531" xlink:href="#MicrosoftYaHei-86"/>
      <use x="204.396484" xlink:href="#MicrosoftYaHei-32"/>
      <use x="233.986328" xlink:href="#MicrosoftYaHei-115"/>
      <use x="280.275391" xlink:href="#MicrosoftYaHei-112"/>
      <use x="344.142578" xlink:href="#MicrosoftYaHei-101"/>
      <use x="400.880859" xlink:href="#MicrosoftYaHei-101"/>
      <use x="457.619141" xlink:href="#MicrosoftYaHei-100"/>
      <use x="521.583984" xlink:href="#MicrosoftYaHei-32"/>
      <use x="551.173828" xlink:href="#MicrosoftYaHei-86"/>
      <use x="618.800781" xlink:href="#MicrosoftYaHei-40"/>
      <use x="652.199219" xlink:href="#MicrosoftYaHei-109"/>
      <use x="745.900391" xlink:href="#MicrosoftYaHei-47"/>
      <use x="788.625" xlink:href="#MicrosoftYaHei-115"/>
      <use x="834.914062" xlink:href="#MicrosoftYaHei-41"/>
     </g>
    </g>
   </g>
   <g id="matplotlib.axis_2">
    <g id="ytick_1">
     <g id="line2d_8">
      <defs>
       <path d="M 0 0 
L -3.5 0 
" id="mada4fa21c8" style="stroke:#000000;stroke-width:0.8;"/>
      </defs>
      <g>
       <use style="stroke:#000000;stroke-width:0.8;" x="72" xlink:href="#mada4fa21c8" y="384.48"/>
      </g>
     </g>
     <g id="text_9">
      <!-- 0 -->
      <g transform="translate(58.6375 388.279219)scale(0.1 -0.1)">
       <use xlink:href="#DejaVuSans-48"/>
      </g>
     </g>
    </g>
    <g id="ytick_2">
     <g id="line2d_9">
      <g>
       <use style="stroke:#000000;stroke-width:0.8;" x="72" xlink:href="#mada4fa21c8" y="329.04"/>
      </g>
     </g>
     <g id="text_10">
      <!-- 50 -->
      <g transform="translate(52.275 332.839219)scale(0.1 -0.1)">
       <use xlink:href="#DejaVuSans-53"/>
       <use x="63.623047" xlink:href="#DejaVuSans-48"/>
      </g>
     </g>
    </g>
    <g id="ytick_3">
     <g id="line2d_10">
      <g>
       <use style="stroke:#000000;stroke-width:0.8;" x="72" xlink:href="#mada4fa21c8" y="273.6"/>
      </g>
     </g>
     <g id="text_11">
      <!-- 100 -->
      <g transform="translate(45.9125 277.399219)scale(0.1 -0.1)">
       <use xlink:href="#DejaVuSans-49"/>
       <use x="63.623047" xlink:href="#DejaVuSans-48"/>
       <use x="127.246094" xlink:href="#DejaVuSans-48"/>
      </g>
     </g>
    </g>
    <g id="ytick_4">
     <g id="line2d_11">
      <g>
       <use style="stroke:#000000;stroke-width:0.8;" x="72" xlink:href="#mada4fa21c8" y="218.16"/>
      </g>
     </g>
     <g id="text_12">
      <!-- 150 -->
      <g transform="translate(45.9125 221.959219)scale(0.1 -0.1)">
       <use xlink:href="#DejaVuSans-49"/>
       <use x="63.623047" xlink:href="#DejaVuSans-53"/>
       <use x="127.246094" xlink:href="#DejaVuSans-48"/>
      </g>
     </g>
    </g>
    <g id="ytick_5">
     <g id="line2d_12">
      <g>
       <use style="stroke:#000000;stroke-width:0.8;" x="72" xlink:href="#mada4fa21c8" y="162.72"/>
      </g>
     </g>
     <g id="text_13">
      <!-- 200 -->
      <g transform="translate(45.9125 166.519219)scale(0.1 -0.1)">
       <use xlink:href="#DejaVuSans-50"/>
       <use x="63.623047" xlink:href="#DejaVuSans-48"/>
       <use x="127.246094" xlink:href="#DejaVuSans-48"/>
      </g>
     </g>
    </g>
    <g id="ytick_6">
     <g id="line2d_13">
      <g>
       <use style="stroke:#000000;stroke-width:0.8;" x="72" xlink:href="#mada4fa21c8" y="107.28"/>
      </g>
     </g>
     <g id="text_14">
      <!-- 250 -->
      <g transform="translate(45.9125 111.079219)scale(0.1 -0.1)">
       <use xlink:href="#DejaVuSans-50"/>
       <use x="63.623047" xlink:href="#DejaVuSans-53"/>
       <use x="127.246094" xlink:href="#DejaVuSans-48"/>
      </g>
     </g>
    </g>
    <g id="ytick_7">
     <g id="line2d_14">
      <g>
       <use style="stroke:#000000;stroke-width:0.8;" x="72" xlink:href="#mada4fa21c8" y="51.84"/>
      </g>
     </g>
     <g id="text_15">
      <!-- 300 -->
      <g transform="translate(45.9125 55.639219)scale(0.1 -0.1)">
       <use xlink:href="#DejaVuSans-51"/>
       <use x="63.623047" xlink:href="#DejaVuSans-48"/>
       <use x="127.246094" xlink:href="#DejaVuSans-48"/>
      </g>
     </g>
    </g>
    <g id="text_16">
     <!-- Profile Power(W) -->
     <g transform="translate(36.443437 305.776719)rotate(-90)scale(0.22 -0.22)">
      <defs>
       <path d="M 19.53125 28.265625 
L 19.53125 0 
L 9.765625 0 
L 9.765625 75.640625 
L 31.25 75.640625 
Q 43.5 75.640625 50.265625 69.71875 
Q 57.03125 63.8125 57.03125 52.828125 
Q 57.03125 41.703125 49.125 34.78125 
Q 41.21875 27.875 29.34375 28.265625 
z
M 19.53125 67.046875 
L 19.53125 36.859375 
L 28.5625 36.859375 
Q 37.5 36.859375 42.140625 40.890625 
Q 46.78125 44.921875 46.78125 52.4375 
Q 46.78125 67.046875 29.5 67.046875 
z
" id="MicrosoftYaHei-80"/>
       <path d="M 37.5 44.53125 
Q 35.109375 46.234375 30.90625 46.234375 
Q 25.34375 46.234375 21.71875 41.03125 
Q 18.109375 35.84375 18.109375 27.34375 
L 18.109375 0 
L 8.546875 0 
L 8.546875 54 
L 18.109375 54 
L 18.109375 43.015625 
L 18.3125 43.015625 
Q 22.40625 54.9375 32.46875 54.9375 
Q 35.75 54.9375 37.5 54.203125 
z
" id="MicrosoftYaHei-114"/>
       <path d="M 4.9375 26.421875 
Q 4.9375 39.796875 12.40625 47.53125 
Q 19.875 55.28125 32.671875 55.28125 
Q 44.828125 55.28125 51.734375 47.828125 
Q 58.640625 40.375 58.640625 27.25 
Q 58.640625 14.453125 51.265625 6.59375 
Q 43.890625 -1.265625 31.5 -1.265625 
Q 19.390625 -1.265625 12.15625 6.34375 
Q 4.9375 13.96875 4.9375 26.421875 
z
M 14.703125 26.703125 
Q 14.703125 17.390625 19.40625 12.015625 
Q 24.125 6.640625 32.078125 6.640625 
Q 40.28125 6.640625 44.578125 11.890625 
Q 48.875 17.140625 48.875 26.953125 
Q 48.875 36.8125 44.578125 42.078125 
Q 40.28125 47.359375 32.078125 47.359375 
Q 24.03125 47.359375 19.359375 41.84375 
Q 14.703125 36.328125 14.703125 26.703125 
z
" id="MicrosoftYaHei-111"/>
       <path d="M 36.234375 71.78125 
Q 33.546875 73.1875 30.421875 73.1875 
Q 21.4375 73.1875 21.4375 62.0625 
L 21.4375 54 
L 34.078125 54 
L 34.078125 46.09375 
L 21.4375 46.09375 
L 21.4375 0 
L 11.96875 0 
L 11.96875 46.09375 
L 2.734375 46.09375 
L 2.734375 54 
L 11.96875 54 
L 11.96875 62.5 
Q 11.96875 71.1875 16.96875 76.140625 
Q 21.96875 81.109375 29.6875 81.109375 
Q 33.796875 81.109375 36.234375 80.171875 
z
" id="MicrosoftYaHei-102"/>
       <path d="M 7.375 73.046875 
Q 7.375 75.59375 9.109375 77.3125 
Q 10.84375 79.046875 13.375 79.046875 
Q 15.96875 79.046875 17.75 77.34375 
Q 19.53125 75.640625 19.53125 73.046875 
Q 19.53125 70.515625 17.75 68.828125 
Q 15.96875 67.140625 13.375 67.140625 
Q 10.796875 67.140625 9.078125 68.828125 
Q 7.375 70.515625 7.375 73.046875 
z
M 8.5 0 
L 8.5 54 
L 18.0625 54 
L 18.0625 0 
z
" id="MicrosoftYaHei-105"/>
       <path d="M 8.5 0 
L 8.5 79.9375 
L 18.0625 79.9375 
L 18.0625 0 
z
" id="MicrosoftYaHei-108"/>
       <path d="M 77.734375 54 
L 61.625 0 
L 51.65625 0 
L 40.921875 37.890625 
Q 40.234375 40.328125 40.046875 43.0625 
L 39.84375 43.0625 
Q 39.703125 41.015625 38.71875 37.984375 
L 27.09375 0 
L 17.4375 0 
L 1.21875 54 
L 11.1875 54 
L 21.96875 13.96875 
Q 22.46875 12.15625 22.703125 9.03125 
L 23.09375 9.03125 
Q 23.296875 11.71875 24.03125 14.109375 
L 35.640625 54 
L 44.484375 54 
L 55.8125 13.921875 
Q 56.296875 12.15625 56.59375 8.9375 
L 57.03125 8.9375 
Q 57.125 11.078125 57.90625 13.921875 
L 68.453125 54 
z
" id="MicrosoftYaHei-119"/>
       <path d="M 100.484375 75.640625 
L 79.296875 0 
L 67.921875 0 
L 52.6875 54.5 
Q 51.65625 58.203125 51.46875 62.3125 
L 51.265625 62.3125 
Q 50.984375 58.25 49.90625 54.59375 
L 34.515625 0 
L 23.25 0 
L 1.3125 75.640625 
L 12.109375 75.640625 
L 27.546875 18.5 
Q 28.5625 14.65625 28.765625 10.75 
L 29.046875 10.75 
Q 29.296875 13.671875 30.671875 18.5 
L 47.015625 75.640625 
L 56.640625 75.640625 
L 72.265625 18.0625 
Q 73.046875 15.234375 73.53125 10.84375 
L 73.734375 10.84375 
Q 73.96875 14.015625 75.140625 18.265625 
L 89.984375 75.640625 
z
" id="MicrosoftYaHei-87"/>
      </defs>
      <use xlink:href="#MicrosoftYaHei-80"/>
      <use x="61.181641" xlink:href="#MicrosoftYaHei-114"/>
      <use x="97.990234" xlink:href="#MicrosoftYaHei-111"/>
      <use x="159.564453" xlink:href="#MicrosoftYaHei-102"/>
      <use x="194.232422" xlink:href="#MicrosoftYaHei-105"/>
      <use x="220.84375" xlink:href="#MicrosoftYaHei-108"/>
      <use x="247.455078" xlink:href="#MicrosoftYaHei-101"/>
      <use x="304.193359" xlink:href="#MicrosoftYaHei-32"/>
      <use x="333.783203" xlink:href="#MicrosoftYaHei-80"/>
      <use x="390.964844" xlink:href="#MicrosoftYaHei-111"/>
      <use x="454.539062" xlink:href="#MicrosoftYaHei-119"/>
      <use x="532.994141" xlink:href="#MicrosoftYaHei-101"/>
      <use x="589.732422" xlink:href="#MicrosoftYaHei-114"/>
      <use x="627.916016" xlink:href="#MicrosoftYaHei-40"/>
      <use x="661.314453" xlink:href="#MicrosoftYaHei-87"/>
      <use x="763.072266" xlink:href="#MicrosoftYaHei-41"/>
     </g>
    </g>
   </g>
   <g id="line2d_15">
    <path clip-path="url(#p6750b9b6ed)" d="M 72 295.980245 
L 76.363636 295.978552 
L 80.727273 295.973473 
L 85.090909 295.965008 
L 89.454545 295.953156 
L 93.818182 295.937919 
L 98.181818 295.919295 
L 102.545455 295.897285 
L 106.909091 295.871889 
L 111.272727 295.843107 
L 115.636364 295.810939 
L 120 295.775385 
L 124.363636 295.736444 
L 128.727273 295.694118 
L 133.090909 295.648405 
L 137.454545 295.599306 
L 141.818182 295.546821 
L 146.181818 295.49095 
L 150.545455 295.431693 
L 154.909091 295.36905 
L 159.272727 295.30302 
L 163.636364 295.233605 
L 168 295.160803 
L 172.363636 295.084615 
L 176.727273 295.005041 
L 181.090909 294.922081 
L 185.454545 294.835735 
L 189.818182 294.746003 
L 194.181818 294.652884 
L 198.545455 294.55638 
L 202.909091 294.456489 
L 207.272727 294.353212 
L 211.636364 294.246549 
L 216 294.1365 
L 220.363636 294.023065 
L 224.727273 293.906244 
L 229.090909 293.786036 
L 233.454545 293.662443 
L 237.818182 293.535463 
L 242.181818 293.405097 
L 246.545455 293.271345 
L 250.909091 293.134207 
L 255.272727 292.993683 
L 259.636364 292.849773 
L 264 292.702476 
L 268.363636 292.551794 
L 272.727273 292.397725 
L 277.090909 292.24027 
L 281.454545 292.079429 
L 285.818182 291.915202 
L 290.181818 291.747589 
L 294.545455 291.57659 
L 298.909091 291.402205 
L 303.272727 291.224433 
L 307.636364 291.043275 
L 312 290.858732 
L 316.363636 290.670802 
L 320.727273 290.479486 
L 325.090909 290.284783 
L 329.454545 290.086695 
L 333.818182 289.885221 
L 338.181818 289.68036 
L 342.545455 289.472113 
L 346.909091 289.260481 
L 351.272727 289.045462 
L 355.636364 288.827057 
L 360 288.605266 
L 364.363636 288.380088 
L 368.727273 288.151525 
L 373.090909 287.919575 
L 377.454545 287.68424 
L 381.818182 287.445518 
L 386.181818 287.20341 
L 390.545455 286.957916 
L 394.909091 286.709036 
L 399.272727 286.456769 
L 403.636364 286.201117 
L 408 285.942078 
L 412.363636 285.679654 
L 416.727273 285.413843 
L 421.090909 285.144646 
L 425.454545 284.872063 
L 429.818182 284.596094 
L 434.181818 284.316739 
L 438.545455 284.033997 
L 442.909091 283.74787 
L 447.272727 283.458356 
L 451.636364 283.165456 
L 456 282.86917 
L 460.363636 282.569498 
L 464.727273 282.26644 
L 469.090909 281.959996 
L 473.454545 281.650165 
L 477.818182 281.336949 
L 482.181818 281.020346 
L 486.545455 280.700357 
L 490.909091 280.376983 
L 495.272727 280.050221 
L 499.636364 279.720074 
L 504 279.386541 
" style="fill:none;stroke:#e85642;stroke-linecap:square;stroke-width:2;"/>
   </g>
   <g id="patch_3">
    <path d="M 72 384.48 
L 72 51.84 
" style="fill:none;stroke:#000000;stroke-linecap:square;stroke-linejoin:miter;stroke-width:0.8;"/>
   </g>
   <g id="patch_4">
    <path d="M 518.4 384.48 
L 518.4 51.84 
" style="fill:none;stroke:#000000;stroke-linecap:square;stroke-linejoin:miter;stroke-width:0.8;"/>
   </g>
   <g id="patch_5">
    <path d="M 72 384.48 
L 518.4 384.48 
" style="fill:none;stroke:#000000;stroke-linecap:square;stroke-linejoin:miter;stroke-width:0.8;"/>
   </g>
   <g id="patch_6">
    <path d="M 72 51.84 
L 518.4 51.84 
" style="fill:none;stroke:#000000;stroke-linecap:square;stroke-linejoin:miter;stroke-width:0.8;"/>
   </g>
   <g id="text_17">
    <!-- Profile Power for Forward Flight -->
    <g transform="translate(128.376406 45.84)scale(0.22 -0.22)">
     <defs>
      <path d="M 48.734375 66.9375 
L 19.53125 66.9375 
L 19.53125 41.65625 
L 46.578125 41.65625 
L 46.578125 33.0625 
L 19.53125 33.0625 
L 19.53125 0 
L 9.765625 0 
L 9.765625 75.640625 
L 48.734375 75.640625 
z
" id="MicrosoftYaHei-70"/>
      <path d="M 9.8125 50.25 
Q 17.875 55.28125 28.421875 55.28125 
Q 47.953125 55.28125 47.953125 34.765625 
L 47.953125 0 
L 38.484375 0 
L 38.484375 8.34375 
L 38.234375 8.34375 
Q 32.625 -1.265625 21.6875 -1.265625 
Q 13.8125 -1.265625 9.171875 2.984375 
Q 4.546875 7.234375 4.546875 14.453125 
Q 4.546875 29.59375 22.46875 32.078125 
L 38.484375 34.328125 
Q 38.484375 47.5625 27.546875 47.5625 
Q 17.828125 47.5625 9.8125 41.015625 
z
M 25.828125 25.390625 
Q 19.1875 24.515625 16.671875 22.0625 
Q 14.15625 19.625 14.15625 15.234375 
Q 14.15625 11.375 16.890625 8.9375 
Q 19.625 6.5 24.125 6.5 
Q 30.375 6.5 34.421875 10.890625 
Q 38.484375 15.28125 38.484375 21.921875 
L 38.484375 27.09375 
z
" id="MicrosoftYaHei-97"/>
      <path d="M 55.421875 4.546875 
Q 55.421875 -25.4375 26.3125 -25.4375 
Q 16.265625 -25.4375 8.84375 -21.6875 
L 8.84375 -12.453125 
Q 17.875 -17.484375 26.171875 -17.484375 
Q 45.84375 -17.484375 45.84375 3.21875 
L 45.84375 8.9375 
L 45.65625 8.9375 
Q 39.5 -1.265625 27.296875 -1.265625 
Q 17.140625 -1.265625 11.03125 6 
Q 4.9375 13.28125 4.9375 25.296875 
Q 4.9375 39.109375 11.671875 47.1875 
Q 18.40625 55.28125 29.640625 55.28125 
Q 40.4375 55.28125 45.65625 46.6875 
L 45.84375 46.6875 
L 45.84375 54 
L 55.421875 54 
z
M 45.84375 32.125 
Q 45.90625 38.375 41.65625 42.859375 
Q 37.40625 47.359375 31.203125 47.359375 
Q 23.390625 47.359375 19.046875 41.625 
Q 14.703125 35.890625 14.703125 25.875 
Q 14.703125 17.28125 18.890625 11.953125 
Q 23.09375 6.640625 30.03125 6.640625 
Q 37.015625 6.640625 41.453125 11.71875 
Q 45.90625 16.796875 45.84375 24.609375 
z
" id="MicrosoftYaHei-103"/>
      <path d="M 54.15625 0 
L 44.625 0 
L 44.625 31.0625 
Q 44.625 47.359375 32.515625 47.359375 
Q 26.3125 47.359375 22.203125 42.59375 
Q 18.109375 37.84375 18.109375 30.609375 
L 18.109375 0 
L 8.546875 0 
L 8.546875 79.9375 
L 18.109375 79.9375 
L 18.109375 45.125 
L 18.3125 45.125 
Q 24.515625 55.28125 35.9375 55.28125 
Q 54.15625 55.28125 54.15625 33.25 
z
" id="MicrosoftYaHei-104"/>
      <path d="M 34.46875 0.53125 
Q 31.34375 -1.171875 26.03125 -1.171875 
Q 11.53125 -1.171875 11.53125 14.890625 
L 11.53125 46.09375 
L 2.25 46.09375 
L 2.25 54 
L 11.53125 54 
L 11.53125 67 
L 21.046875 70.015625 
L 21.046875 54 
L 34.46875 54 
L 34.46875 46.09375 
L 21.046875 46.09375 
L 21.046875 16.609375 
Q 21.046875 11.28125 22.84375 8.984375 
Q 24.65625 6.6875 28.859375 6.6875 
Q 32.078125 6.6875 34.46875 8.5 
z
" id="MicrosoftYaHei-116"/>
     </defs>
     <use xlink:href="#MicrosoftYaHei-80"/>
     <use x="61.181641" xlink:href="#MicrosoftYaHei-114"/>
     <use x="97.990234" xlink:href="#MicrosoftYaHei-111"/>
     <use x="159.564453" xlink:href="#MicrosoftYaHei-102"/>
     <use x="194.232422" xlink:href="#MicrosoftYaHei-105"/>
     <use x="220.84375" xlink:href="#MicrosoftYaHei-108"/>
     <use x="247.455078" xlink:href="#MicrosoftYaHei-101"/>
     <use x="304.193359" xlink:href="#MicrosoftYaHei-32"/>
     <use x="333.783203" xlink:href="#MicrosoftYaHei-80"/>
     <use x="390.964844" xlink:href="#MicrosoftYaHei-111"/>
     <use x="454.539062" xlink:href="#MicrosoftYaHei-119"/>
     <use x="532.994141" xlink:href="#MicrosoftYaHei-101"/>
     <use x="589.732422" xlink:href="#MicrosoftYaHei-114"/>
     <use x="627.916016" xlink:href="#MicrosoftYaHei-32"/>
     <use x="657.505859" xlink:href="#MicrosoftYaHei-102"/>
     <use x="692.173828" xlink:href="#MicrosoftYaHei-111"/>
     <use x="755.748047" xlink:href="#MicrosoftYaHei-114"/>
     <use x="793.931641" xlink:href="#MicrosoftYaHei-32"/>
     <use x="823.521484" xlink:href="#MicrosoftYaHei-70"/>
     <use x="876.646484" xlink:href="#MicrosoftYaHei-111"/>
     <use x="940.220703" xlink:href="#MicrosoftYaHei-114"/>
     <use x="982.779297" xlink:href="#MicrosoftYaHei-119"/>
     <use x="1061.734375" xlink:href="#MicrosoftYaHei-97"/>
     <use x="1117.007812" xlink:href="#MicrosoftYaHei-114"/>
     <use x="1153.816406" xlink:href="#MicrosoftYaHei-100"/>
     <use x="1217.78125" xlink:href="#MicrosoftYaHei-32"/>
     <use x="1247.371094" xlink:href="#MicrosoftYaHei-70"/>
     <use x="1300.496094" xlink:href="#MicrosoftYaHei-108"/>
     <use x="1327.107422" xlink:href="#MicrosoftYaHei-105"/>
     <use x="1353.71875" xlink:href="#MicrosoftYaHei-103"/>
     <use x="1417.683594" xlink:href="#MicrosoftYaHei-104"/>
     <use x="1479.255859" xlink:href="#MicrosoftYaHei-116"/>
    </g>
   </g>
  </g>
 </g>
 <defs>
  <clipPath id="p6750b9b6ed">
   <rect height="332.64" width="446.4" x="72" y="51.84"/>
  </clipPath>
 </defs>
</svg>
