<?xml version="1.0" encoding="utf-8" standalone="no"?>
<!DOCTYPE svg PUBLIC "-//W3C//DTD SVG 1.1//EN"
  "http://www.w3.org/Graphics/SVG/1.1/DTD/svg11.dtd">
<!-- Created with matplotlib (https://matplotlib.org/) -->
<svg height="432pt" version="1.1" viewBox="0 0 576 432" width="576pt" xmlns="http://www.w3.org/2000/svg" xmlns:xlink="http://www.w3.org/1999/xlink">
 <metadata>
  <rdf:RDF xmlns:cc="http://creativecommons.org/ns#" xmlns:dc="http://purl.org/dc/elements/1.1/" xmlns:rdf="http://www.w3.org/1999/02/22-rdf-syntax-ns#">
   <cc:Work>
    <dc:type rdf:resource="http://purl.org/dc/dcmitype/StillImage"/>
    <dc:date>2021-09-29T15:25:27.397342</dc:date>
    <dc:format>image/svg+xml</dc:format>
    <dc:creator>
     <cc:Agent>
      <dc:title>Matplotlib v3.3.2, https://matplotlib.org/</dc:title>
     </cc:Agent>
    </dc:creator>
   </cc:Work>
  </rdf:RDF>
 </metadata>
 <defs>
  <style type="text/css">*{stroke-linecap:butt;stroke-linejoin:round;}</style>
 </defs>
 <g id="figure_1">
  <g id="patch_1">
   <path d="M 0 432 
L 576 432 
L 576 0 
L 0 0 
z
" style="fill:#ffffff;"/>
  </g>
  <g id="axes_1">
   <g id="patch_2">
    <path d="M 72 384.48 
L 518.4 384.48 
L 518.4 51.84 
L 72 51.84 
z
" style="fill:#ffffff;"/>
   </g>
   <g id="matplotlib.axis_1">
    <g id="xtick_1">
     <g id="line2d_1">
      <defs>
       <path d="M 0 0 
L 0 3.5 
" id="mf6cd5a8f12" style="stroke:#000000;stroke-width:0.8;"/>
      </defs>
      <g>
       <use style="stroke:#000000;stroke-width:0.8;" x="72" xlink:href="#mf6cd5a8f12" y="384.48"/>
      </g>
     </g>
     <g id="text_1">
      <!-- 0 -->
      <g transform="translate(68.81875 399.078438)scale(0.1 -0.1)">
       <defs>
        <path d="M 31.78125 66.40625 
Q 24.171875 66.40625 20.328125 58.90625 
Q 16.5 51.421875 16.5 36.375 
Q 16.5 21.390625 20.328125 13.890625 
Q 24.171875 6.390625 31.78125 6.390625 
Q 39.453125 6.390625 43.28125 13.890625 
Q 47.125 21.390625 47.125 36.375 
Q 47.125 51.421875 43.28125 58.90625 
Q 39.453125 66.40625 31.78125 66.40625 
z
M 31.78125 74.21875 
Q 44.046875 74.21875 50.515625 64.515625 
Q 56.984375 54.828125 56.984375 36.375 
Q 56.984375 17.96875 50.515625 8.265625 
Q 44.046875 -1.421875 31.78125 -1.421875 
Q 19.53125 -1.421875 13.0625 8.265625 
Q 6.59375 17.96875 6.59375 36.375 
Q 6.59375 54.828125 13.0625 64.515625 
Q 19.53125 74.21875 31.78125 74.21875 
z
" id="DejaVuSans-48"/>
       </defs>
       <use xlink:href="#DejaVuSans-48"/>
      </g>
     </g>
    </g>
    <g id="xtick_2">
     <g id="line2d_2">
      <g>
       <use style="stroke:#000000;stroke-width:0.8;" x="146.4" xlink:href="#mf6cd5a8f12" y="384.48"/>
      </g>
     </g>
     <g id="text_2">
      <!-- 5 -->
      <g transform="translate(143.21875 399.078438)scale(0.1 -0.1)">
       <defs>
        <path d="M 10.796875 72.90625 
L 49.515625 72.90625 
L 49.515625 64.59375 
L 19.828125 64.59375 
L 19.828125 46.734375 
Q 21.96875 47.46875 24.109375 47.828125 
Q 26.265625 48.1875 28.421875 48.1875 
Q 40.625 48.1875 47.75 41.5 
Q 54.890625 34.8125 54.890625 23.390625 
Q 54.890625 11.625 47.5625 5.09375 
Q 40.234375 -1.421875 26.90625 -1.421875 
Q 22.3125 -1.421875 17.546875 -0.640625 
Q 12.796875 0.140625 7.71875 1.703125 
L 7.71875 11.625 
Q 12.109375 9.234375 16.796875 8.0625 
Q 21.484375 6.890625 26.703125 6.890625 
Q 35.15625 6.890625 40.078125 11.328125 
Q 45.015625 15.765625 45.015625 23.390625 
Q 45.015625 31 40.078125 35.4375 
Q 35.15625 39.890625 26.703125 39.890625 
Q 22.75 39.890625 18.8125 39.015625 
Q 14.890625 38.140625 10.796875 36.28125 
z
" id="DejaVuSans-53"/>
       </defs>
       <use xlink:href="#DejaVuSans-53"/>
      </g>
     </g>
    </g>
    <g id="xtick_3">
     <g id="line2d_3">
      <g>
       <use style="stroke:#000000;stroke-width:0.8;" x="220.8" xlink:href="#mf6cd5a8f12" y="384.48"/>
      </g>
     </g>
     <g id="text_3">
      <!-- 10 -->
      <g transform="translate(214.4375 399.078438)scale(0.1 -0.1)">
       <defs>
        <path d="M 12.40625 8.296875 
L 28.515625 8.296875 
L 28.515625 63.921875 
L 10.984375 60.40625 
L 10.984375 69.390625 
L 28.421875 72.90625 
L 38.28125 72.90625 
L 38.28125 8.296875 
L 54.390625 8.296875 
L 54.390625 0 
L 12.40625 0 
z
" id="DejaVuSans-49"/>
       </defs>
       <use xlink:href="#DejaVuSans-49"/>
       <use x="63.623047" xlink:href="#DejaVuSans-48"/>
      </g>
     </g>
    </g>
    <g id="xtick_4">
     <g id="line2d_4">
      <g>
       <use style="stroke:#000000;stroke-width:0.8;" x="295.2" xlink:href="#mf6cd5a8f12" y="384.48"/>
      </g>
     </g>
     <g id="text_4">
      <!-- 15 -->
      <g transform="translate(288.8375 399.078438)scale(0.1 -0.1)">
       <use xlink:href="#DejaVuSans-49"/>
       <use x="63.623047" xlink:href="#DejaVuSans-53"/>
      </g>
     </g>
    </g>
    <g id="xtick_5">
     <g id="line2d_5">
      <g>
       <use style="stroke:#000000;stroke-width:0.8;" x="369.6" xlink:href="#mf6cd5a8f12" y="384.48"/>
      </g>
     </g>
     <g id="text_5">
      <!-- 20 -->
      <g transform="translate(363.2375 399.078438)scale(0.1 -0.1)">
       <defs>
        <path d="M 19.1875 8.296875 
L 53.609375 8.296875 
L 53.609375 0 
L 7.328125 0 
L 7.328125 8.296875 
Q 12.9375 14.109375 22.625 23.890625 
Q 32.328125 33.6875 34.8125 36.53125 
Q 39.546875 41.84375 41.421875 45.53125 
Q 43.3125 49.21875 43.3125 52.78125 
Q 43.3125 58.59375 39.234375 62.25 
Q 35.15625 65.921875 28.609375 65.921875 
Q 23.96875 65.921875 18.8125 64.3125 
Q 13.671875 62.703125 7.8125 59.421875 
L 7.8125 69.390625 
Q 13.765625 71.78125 18.9375 73 
Q 24.125 74.21875 28.421875 74.21875 
Q 39.75 74.21875 46.484375 68.546875 
Q 53.21875 62.890625 53.21875 53.421875 
Q 53.21875 48.921875 51.53125 44.890625 
Q 49.859375 40.875 45.40625 35.40625 
Q 44.1875 33.984375 37.640625 27.21875 
Q 31.109375 20.453125 19.1875 8.296875 
z
" id="DejaVuSans-50"/>
       </defs>
       <use xlink:href="#DejaVuSans-50"/>
       <use x="63.623047" xlink:href="#DejaVuSans-48"/>
      </g>
     </g>
    </g>
    <g id="xtick_6">
     <g id="line2d_6">
      <g>
       <use style="stroke:#000000;stroke-width:0.8;" x="444" xlink:href="#mf6cd5a8f12" y="384.48"/>
      </g>
     </g>
     <g id="text_6">
      <!-- 25 -->
      <g transform="translate(437.6375 399.078438)scale(0.1 -0.1)">
       <use xlink:href="#DejaVuSans-50"/>
       <use x="63.623047" xlink:href="#DejaVuSans-53"/>
      </g>
     </g>
    </g>
    <g id="xtick_7">
     <g id="line2d_7">
      <g>
       <use style="stroke:#000000;stroke-width:0.8;" x="518.4" xlink:href="#mf6cd5a8f12" y="384.48"/>
      </g>
     </g>
     <g id="text_7">
      <!-- 30 -->
      <g transform="translate(512.0375 399.078438)scale(0.1 -0.1)">
       <defs>
        <path d="M 40.578125 39.3125 
Q 47.65625 37.796875 51.625 33 
Q 55.609375 28.21875 55.609375 21.1875 
Q 55.609375 10.40625 48.1875 4.484375 
Q 40.765625 -1.421875 27.09375 -1.421875 
Q 22.515625 -1.421875 17.65625 -0.515625 
Q 12.796875 0.390625 7.625 2.203125 
L 7.625 11.71875 
Q 11.71875 9.328125 16.59375 8.109375 
Q 21.484375 6.890625 26.8125 6.890625 
Q 36.078125 6.890625 40.9375 10.546875 
Q 45.796875 14.203125 45.796875 21.1875 
Q 45.796875 27.640625 41.28125 31.265625 
Q 36.765625 34.90625 28.71875 34.90625 
L 20.21875 34.90625 
L 20.21875 43.015625 
L 29.109375 43.015625 
Q 36.375 43.015625 40.234375 45.921875 
Q 44.09375 48.828125 44.09375 54.296875 
Q 44.09375 59.90625 40.109375 62.90625 
Q 36.140625 65.921875 28.71875 65.921875 
Q 24.65625 65.921875 20.015625 65.03125 
Q 15.375 64.15625 9.8125 62.3125 
L 9.8125 71.09375 
Q 15.4375 72.65625 20.34375 73.4375 
Q 25.25 74.21875 29.59375 74.21875 
Q 40.828125 74.21875 47.359375 69.109375 
Q 53.90625 64.015625 53.90625 55.328125 
Q 53.90625 49.265625 50.4375 45.09375 
Q 46.96875 40.921875 40.578125 39.3125 
z
" id="DejaVuSans-51"/>
       </defs>
       <use xlink:href="#DejaVuSans-51"/>
       <use x="63.623047" xlink:href="#DejaVuSans-48"/>
      </g>
     </g>
    </g>
    <g id="text_8">
     <!-- UAV speed V(m/s) -->
     <g transform="translate(199.682187 422.744375)scale(0.22 -0.22)">
      <defs>
       <path d="M 65.828125 30.8125 
Q 65.828125 -1.265625 36.71875 -1.265625 
Q 8.84375 -1.265625 8.84375 29.6875 
L 8.84375 75.640625 
L 18.609375 75.640625 
L 18.609375 30.125 
Q 18.609375 7.421875 37.640625 7.421875 
Q 56.0625 7.421875 56.0625 29.390625 
L 56.0625 75.640625 
L 65.828125 75.640625 
z
" id="MicrosoftYaHei-85"/>
       <path d="M 69.1875 0 
L 58.40625 0 
L 50.6875 20.703125 
L 19.1875 20.703125 
L 11.921875 0 
L 1.125 0 
L 29.9375 75.640625 
L 40.375 75.640625 
z
M 47.65625 29.25 
L 36.234375 60.6875 
Q 35.6875 62.203125 35.0625 65.96875 
L 34.8125 65.96875 
Q 34.28125 62.546875 33.59375 60.6875 
L 22.265625 29.25 
z
" id="MicrosoftYaHei-65"/>
       <path d="M 66.75 75.640625 
L 38.96875 0 
L 28.125 0 
L 0.875 75.640625 
L 11.71875 75.640625 
L 32.078125 16.5 
Q 33.109375 13.578125 33.59375 9.71875 
L 33.84375 9.71875 
Q 34.234375 13.09375 35.546875 16.609375 
L 56.296875 75.640625 
z
" id="MicrosoftYaHei-86"/>
       <path id="MicrosoftYaHei-32"/>
       <path d="M 5.515625 11.671875 
Q 12.75 6.453125 21.09375 6.453125 
Q 32.28125 6.453125 32.28125 13.765625 
Q 32.28125 16.890625 29.828125 18.921875 
Q 27.390625 20.953125 19.921875 23.734375 
Q 10.9375 27.34375 8.25 30.875 
Q 5.5625 34.421875 5.5625 39.453125 
Q 5.5625 46.625 11.640625 50.953125 
Q 17.71875 55.28125 26.609375 55.28125 
Q 33.5 55.28125 39.40625 52.875 
L 39.40625 43.65625 
Q 33.34375 47.5625 25.6875 47.5625 
Q 21.09375 47.5625 18.203125 45.5625 
Q 15.328125 43.5625 15.328125 40.28125 
Q 15.328125 37.0625 17.40625 35.25 
Q 19.484375 33.453125 26.609375 30.609375 
Q 35.640625 27.25 38.8125 23.625 
Q 42 20.015625 42 14.703125 
Q 42 7.28125 35.90625 3 
Q 29.828125 -1.265625 20.171875 -1.265625 
Q 11.765625 -1.265625 5.515625 1.90625 
z
" id="MicrosoftYaHei-115"/>
       <path d="M 18.109375 7.625 
L 18.109375 -24.859375 
L 8.546875 -24.859375 
L 8.546875 54 
L 18.109375 54 
L 18.109375 44.671875 
L 18.3125 44.671875 
Q 24.65625 55.28125 36.859375 55.28125 
Q 47.21875 55.28125 53.09375 48.015625 
Q 58.984375 40.765625 58.984375 28.5625 
Q 58.984375 15.09375 52.3125 6.90625 
Q 45.65625 -1.265625 34.375 -1.265625 
Q 23.96875 -1.265625 18.3125 7.625 
z
M 18.0625 22.265625 
Q 18.0625 15.671875 22.3125 11.15625 
Q 26.5625 6.640625 32.953125 6.640625 
Q 40.578125 6.640625 44.875 12.5 
Q 49.171875 18.359375 49.171875 28.71875 
Q 49.171875 37.453125 45.15625 42.40625 
Q 41.15625 47.359375 34.234375 47.359375 
Q 27.15625 47.359375 22.609375 42.328125 
Q 18.0625 37.3125 18.0625 29.4375 
z
" id="MicrosoftYaHei-112"/>
       <path d="M 52.546875 24.5625 
L 14.75 24.5625 
Q 14.984375 15.921875 19.46875 11.203125 
Q 23.96875 6.5 32.03125 6.5 
Q 41.109375 6.5 48.6875 12.3125 
L 48.6875 3.765625 
Q 41.546875 -1.265625 29.78125 -1.265625 
Q 18.0625 -1.265625 11.5 6.15625 
Q 4.9375 13.578125 4.9375 26.765625 
Q 4.9375 39.15625 12.140625 47.21875 
Q 19.34375 55.28125 30.03125 55.28125 
Q 40.625 55.28125 46.578125 48.46875 
Q 52.546875 41.65625 52.546875 29.390625 
z
M 42.96875 32.234375 
Q 42.921875 39.546875 39.5 43.546875 
Q 36.078125 47.5625 29.890625 47.5625 
Q 24.171875 47.5625 20 43.3125 
Q 15.828125 39.0625 14.75 32.234375 
z
" id="MicrosoftYaHei-101"/>
       <path d="M 55.421875 0 
L 45.84375 0 
L 45.84375 8.984375 
L 45.65625 8.984375 
Q 39.75 -1.265625 27.296875 -1.265625 
Q 17.046875 -1.265625 10.984375 6.03125 
Q 4.9375 13.328125 4.9375 25.734375 
Q 4.9375 39.109375 11.765625 47.1875 
Q 18.609375 55.28125 29.640625 55.28125 
Q 40.671875 55.28125 45.65625 46.6875 
L 45.84375 46.6875 
L 45.84375 79.9375 
L 55.421875 79.9375 
z
M 45.90625 32.125 
Q 45.90625 38.625 41.625 42.984375 
Q 37.359375 47.359375 31.109375 47.359375 
Q 23.484375 47.359375 19.09375 41.671875 
Q 14.703125 35.984375 14.703125 26.171875 
Q 14.703125 17.140625 18.921875 11.890625 
Q 23.140625 6.640625 30.171875 6.640625 
Q 37.109375 6.640625 41.5 11.78125 
Q 45.90625 16.9375 45.90625 24.609375 
z
" id="MicrosoftYaHei-100"/>
       <path d="M 23.921875 -17.1875 
Q 7.46875 1.5625 7.46875 28.859375 
Q 7.46875 56.15625 23.921875 75.640625 
L 32.375 75.640625 
Q 15.875 55.375 15.875 28.953125 
Q 15.875 2.59375 32.28125 -17.1875 
z
" id="MicrosoftYaHei-40"/>
       <path d="M 86.28125 0 
L 76.703125 0 
L 76.703125 31 
Q 76.703125 39.796875 73.96875 43.578125 
Q 71.234375 47.359375 64.984375 47.359375 
Q 59.71875 47.359375 55.953125 42.421875 
Q 52.203125 37.5 52.203125 30.765625 
L 52.203125 0 
L 42.625 0 
L 42.625 31.984375 
Q 42.625 47.359375 30.765625 47.359375 
Q 25.296875 47.359375 21.703125 42.671875 
Q 18.109375 37.984375 18.109375 30.71875 
L 18.109375 0 
L 8.546875 0 
L 8.546875 54 
L 18.109375 54 
L 18.109375 45.453125 
L 18.3125 45.453125 
Q 24.078125 55.28125 35.15625 55.28125 
Q 40.578125 55.28125 44.71875 52.296875 
Q 48.875 49.3125 50.484375 44.234375 
Q 56.5 55.28125 68.453125 55.28125 
Q 86.28125 55.28125 86.28125 33.296875 
z
" id="MicrosoftYaHei-109"/>
       <path d="M 43.609375 75.640625 
L 7.328125 -12.546875 
L -1.609375 -12.546875 
L 34.671875 75.640625 
z
" id="MicrosoftYaHei-47"/>
       <path d="M 1.21875 -17.1875 
Q 17.671875 2.546875 17.671875 28.953125 
Q 17.671875 55.421875 1.125 75.640625 
L 9.625 75.640625 
Q 26.125 56.296875 26.125 28.859375 
Q 26.125 1.421875 9.625 -17.1875 
z
" id="MicrosoftYaHei-41"/>
      </defs>
      <use xlink:href="#MicrosoftYaHei-85"/>
      <use x="72.533203" xlink:href="#MicrosoftYaHei-65"/>
      <use x="136.769531" xlink:href="#MicrosoftYaHei-86"/>
      <use x="204.396484" xlink:href="#MicrosoftYaHei-32"/>
      <use x="233.986328" xlink:href="#MicrosoftYaHei-115"/>
      <use x="280.275391" xlink:href="#MicrosoftYaHei-112"/>
      <use x="344.142578" xlink:href="#MicrosoftYaHei-101"/>
      <use x="400.880859" xlink:href="#MicrosoftYaHei-101"/>
      <use x="457.619141" xlink:href="#MicrosoftYaHei-100"/>
      <use x="521.583984" xlink:href="#MicrosoftYaHei-32"/>
      <use x="551.173828" xlink:href="#MicrosoftYaHei-86"/>
      <use x="618.800781" xlink:href="#MicrosoftYaHei-40"/>
      <use x="652.199219" xlink:href="#MicrosoftYaHei-109"/>
      <use x="745.900391" xlink:href="#MicrosoftYaHei-47"/>
      <use x="788.625" xlink:href="#MicrosoftYaHei-115"/>
      <use x="834.914062" xlink:href="#MicrosoftYaHei-41"/>
     </g>
    </g>
   </g>
   <g id="matplotlib.axis_2">
    <g id="ytick_1">
     <g id="line2d_8">
      <defs>
       <path d="M 0 0 
L -3.5 0 
" id="mad5281d6fc" style="stroke:#000000;stroke-width:0.8;"/>
      </defs>
      <g>
       <use style="stroke:#000000;stroke-width:0.8;" x="72" xlink:href="#mad5281d6fc" y="384.48"/>
      </g>
     </g>
     <g id="text_9">
      <!-- 0 -->
      <g transform="translate(58.6375 388.279219)scale(0.1 -0.1)">
       <use xlink:href="#DejaVuSans-48"/>
      </g>
     </g>
    </g>
    <g id="ytick_2">
     <g id="line2d_9">
      <g>
       <use style="stroke:#000000;stroke-width:0.8;" x="72" xlink:href="#mad5281d6fc" y="342.9"/>
      </g>
     </g>
     <g id="text_10">
      <!-- 50 -->
      <g transform="translate(52.275 346.699219)scale(0.1 -0.1)">
       <use xlink:href="#DejaVuSans-53"/>
       <use x="63.623047" xlink:href="#DejaVuSans-48"/>
      </g>
     </g>
    </g>
    <g id="ytick_3">
     <g id="line2d_10">
      <g>
       <use style="stroke:#000000;stroke-width:0.8;" x="72" xlink:href="#mad5281d6fc" y="301.32"/>
      </g>
     </g>
     <g id="text_11">
      <!-- 100 -->
      <g transform="translate(45.9125 305.119219)scale(0.1 -0.1)">
       <use xlink:href="#DejaVuSans-49"/>
       <use x="63.623047" xlink:href="#DejaVuSans-48"/>
       <use x="127.246094" xlink:href="#DejaVuSans-48"/>
      </g>
     </g>
    </g>
    <g id="ytick_4">
     <g id="line2d_11">
      <g>
       <use style="stroke:#000000;stroke-width:0.8;" x="72" xlink:href="#mad5281d6fc" y="259.74"/>
      </g>
     </g>
     <g id="text_12">
      <!-- 150 -->
      <g transform="translate(45.9125 263.539219)scale(0.1 -0.1)">
       <use xlink:href="#DejaVuSans-49"/>
       <use x="63.623047" xlink:href="#DejaVuSans-53"/>
       <use x="127.246094" xlink:href="#DejaVuSans-48"/>
      </g>
     </g>
    </g>
    <g id="ytick_5">
     <g id="line2d_12">
      <g>
       <use style="stroke:#000000;stroke-width:0.8;" x="72" xlink:href="#mad5281d6fc" y="218.16"/>
      </g>
     </g>
     <g id="text_13">
      <!-- 200 -->
      <g transform="translate(45.9125 221.959219)scale(0.1 -0.1)">
       <use xlink:href="#DejaVuSans-50"/>
       <use x="63.623047" xlink:href="#DejaVuSans-48"/>
       <use x="127.246094" xlink:href="#DejaVuSans-48"/>
      </g>
     </g>
    </g>
    <g id="ytick_6">
     <g id="line2d_13">
      <g>
       <use style="stroke:#000000;stroke-width:0.8;" x="72" xlink:href="#mad5281d6fc" y="176.58"/>
      </g>
     </g>
     <g id="text_14">
      <!-- 250 -->
      <g transform="translate(45.9125 180.379219)scale(0.1 -0.1)">
       <use xlink:href="#DejaVuSans-50"/>
       <use x="63.623047" xlink:href="#DejaVuSans-53"/>
       <use x="127.246094" xlink:href="#DejaVuSans-48"/>
      </g>
     </g>
    </g>
    <g id="ytick_7">
     <g id="line2d_14">
      <g>
       <use style="stroke:#000000;stroke-width:0.8;" x="72" xlink:href="#mad5281d6fc" y="135"/>
      </g>
     </g>
     <g id="text_15">
      <!-- 300 -->
      <g transform="translate(45.9125 138.799219)scale(0.1 -0.1)">
       <use xlink:href="#DejaVuSans-51"/>
       <use x="63.623047" xlink:href="#DejaVuSans-48"/>
       <use x="127.246094" xlink:href="#DejaVuSans-48"/>
      </g>
     </g>
    </g>
    <g id="ytick_8">
     <g id="line2d_15">
      <g>
       <use style="stroke:#000000;stroke-width:0.8;" x="72" xlink:href="#mad5281d6fc" y="93.42"/>
      </g>
     </g>
     <g id="text_16">
      <!-- 350 -->
      <g transform="translate(45.9125 97.219219)scale(0.1 -0.1)">
       <use xlink:href="#DejaVuSans-51"/>
       <use x="63.623047" xlink:href="#DejaVuSans-53"/>
       <use x="127.246094" xlink:href="#DejaVuSans-48"/>
      </g>
     </g>
    </g>
    <g id="ytick_9">
     <g id="line2d_16">
      <g>
       <use style="stroke:#000000;stroke-width:0.8;" x="72" xlink:href="#mad5281d6fc" y="51.84"/>
      </g>
     </g>
     <g id="text_17">
      <!-- 400 -->
      <g transform="translate(45.9125 55.639219)scale(0.1 -0.1)">
       <defs>
        <path d="M 37.796875 64.3125 
L 12.890625 25.390625 
L 37.796875 25.390625 
z
M 35.203125 72.90625 
L 47.609375 72.90625 
L 47.609375 25.390625 
L 58.015625 25.390625 
L 58.015625 17.1875 
L 47.609375 17.1875 
L 47.609375 0 
L 37.796875 0 
L 37.796875 17.1875 
L 4.890625 17.1875 
L 4.890625 26.703125 
z
" id="DejaVuSans-52"/>
       </defs>
       <use xlink:href="#DejaVuSans-52"/>
       <use x="63.623047" xlink:href="#DejaVuSans-48"/>
       <use x="127.246094" xlink:href="#DejaVuSans-48"/>
      </g>
     </g>
    </g>
    <g id="text_18">
     <!-- Total Power(W) -->
     <g transform="translate(36.443437 297.495781)rotate(-90)scale(0.22 -0.22)">
      <defs>
       <path d="M 55.46875 66.9375 
L 33.640625 66.9375 
L 33.640625 0 
L 23.828125 0 
L 23.828125 66.9375 
L 2.09375 66.9375 
L 2.09375 75.640625 
L 55.46875 75.640625 
z
" id="MicrosoftYaHei-84"/>
       <path d="M 4.9375 26.421875 
Q 4.9375 39.796875 12.40625 47.53125 
Q 19.875 55.28125 32.671875 55.28125 
Q 44.828125 55.28125 51.734375 47.828125 
Q 58.640625 40.375 58.640625 27.25 
Q 58.640625 14.453125 51.265625 6.59375 
Q 43.890625 -1.265625 31.5 -1.265625 
Q 19.390625 -1.265625 12.15625 6.34375 
Q 4.9375 13.96875 4.9375 26.421875 
z
M 14.703125 26.703125 
Q 14.703125 17.390625 19.40625 12.015625 
Q 24.125 6.640625 32.078125 6.640625 
Q 40.28125 6.640625 44.578125 11.890625 
Q 48.875 17.140625 48.875 26.953125 
Q 48.875 36.8125 44.578125 42.078125 
Q 40.28125 47.359375 32.078125 47.359375 
Q 24.03125 47.359375 19.359375 41.84375 
Q 14.703125 36.328125 14.703125 26.703125 
z
" id="MicrosoftYaHei-111"/>
       <path d="M 34.46875 0.53125 
Q 31.34375 -1.171875 26.03125 -1.171875 
Q 11.53125 -1.171875 11.53125 14.890625 
L 11.53125 46.09375 
L 2.25 46.09375 
L 2.25 54 
L 11.53125 54 
L 11.53125 67 
L 21.046875 70.015625 
L 21.046875 54 
L 34.46875 54 
L 34.46875 46.09375 
L 21.046875 46.09375 
L 21.046875 16.609375 
Q 21.046875 11.28125 22.84375 8.984375 
Q 24.65625 6.6875 28.859375 6.6875 
Q 32.078125 6.6875 34.46875 8.5 
z
" id="MicrosoftYaHei-116"/>
       <path d="M 9.8125 50.25 
Q 17.875 55.28125 28.421875 55.28125 
Q 47.953125 55.28125 47.953125 34.765625 
L 47.953125 0 
L 38.484375 0 
L 38.484375 8.34375 
L 38.234375 8.34375 
Q 32.625 -1.265625 21.6875 -1.265625 
Q 13.8125 -1.265625 9.171875 2.984375 
Q 4.546875 7.234375 4.546875 14.453125 
Q 4.546875 29.59375 22.46875 32.078125 
L 38.484375 34.328125 
Q 38.484375 47.5625 27.546875 47.5625 
Q 17.828125 47.5625 9.8125 41.015625 
z
M 25.828125 25.390625 
Q 19.1875 24.515625 16.671875 22.0625 
Q 14.15625 19.625 14.15625 15.234375 
Q 14.15625 11.375 16.890625 8.9375 
Q 19.625 6.5 24.125 6.5 
Q 30.375 6.5 34.421875 10.890625 
Q 38.484375 15.28125 38.484375 21.921875 
L 38.484375 27.09375 
z
" id="MicrosoftYaHei-97"/>
       <path d="M 8.5 0 
L 8.5 79.9375 
L 18.0625 79.9375 
L 18.0625 0 
z
" id="MicrosoftYaHei-108"/>
       <path d="M 19.53125 28.265625 
L 19.53125 0 
L 9.765625 0 
L 9.765625 75.640625 
L 31.25 75.640625 
Q 43.5 75.640625 50.265625 69.71875 
Q 57.03125 63.8125 57.03125 52.828125 
Q 57.03125 41.703125 49.125 34.78125 
Q 41.21875 27.875 29.34375 28.265625 
z
M 19.53125 67.046875 
L 19.53125 36.859375 
L 28.5625 36.859375 
Q 37.5 36.859375 42.140625 40.890625 
Q 46.78125 44.921875 46.78125 52.4375 
Q 46.78125 67.046875 29.5 67.046875 
z
" id="MicrosoftYaHei-80"/>
       <path d="M 77.734375 54 
L 61.625 0 
L 51.65625 0 
L 40.921875 37.890625 
Q 40.234375 40.328125 40.046875 43.0625 
L 39.84375 43.0625 
Q 39.703125 41.015625 38.71875 37.984375 
L 27.09375 0 
L 17.4375 0 
L 1.21875 54 
L 11.1875 54 
L 21.96875 13.96875 
Q 22.46875 12.15625 22.703125 9.03125 
L 23.09375 9.03125 
Q 23.296875 11.71875 24.03125 14.109375 
L 35.640625 54 
L 44.484375 54 
L 55.8125 13.921875 
Q 56.296875 12.15625 56.59375 8.9375 
L 57.03125 8.9375 
Q 57.125 11.078125 57.90625 13.921875 
L 68.453125 54 
z
" id="MicrosoftYaHei-119"/>
       <path d="M 37.5 44.53125 
Q 35.109375 46.234375 30.90625 46.234375 
Q 25.34375 46.234375 21.71875 41.03125 
Q 18.109375 35.84375 18.109375 27.34375 
L 18.109375 0 
L 8.546875 0 
L 8.546875 54 
L 18.109375 54 
L 18.109375 43.015625 
L 18.3125 43.015625 
Q 22.40625 54.9375 32.46875 54.9375 
Q 35.75 54.9375 37.5 54.203125 
z
" id="MicrosoftYaHei-114"/>
       <path d="M 100.484375 75.640625 
L 79.296875 0 
L 67.921875 0 
L 52.6875 54.5 
Q 51.65625 58.203125 51.46875 62.3125 
L 51.265625 62.3125 
Q 50.984375 58.25 49.90625 54.59375 
L 34.515625 0 
L 23.25 0 
L 1.3125 75.640625 
L 12.109375 75.640625 
L 27.546875 18.5 
Q 28.5625 14.65625 28.765625 10.75 
L 29.046875 10.75 
Q 29.296875 13.671875 30.671875 18.5 
L 47.015625 75.640625 
L 56.640625 75.640625 
L 72.265625 18.0625 
Q 73.046875 15.234375 73.53125 10.84375 
L 73.734375 10.84375 
Q 73.96875 14.015625 75.140625 18.265625 
L 89.984375 75.640625 
z
" id="MicrosoftYaHei-87"/>
      </defs>
      <use xlink:href="#MicrosoftYaHei-84"/>
      <use x="46.199219" xlink:href="#MicrosoftYaHei-111"/>
      <use x="109.773438" xlink:href="#MicrosoftYaHei-116"/>
      <use x="147.029297" xlink:href="#MicrosoftYaHei-97"/>
      <use x="202.302734" xlink:href="#MicrosoftYaHei-108"/>
      <use x="228.914062" xlink:href="#MicrosoftYaHei-32"/>
      <use x="258.503906" xlink:href="#MicrosoftYaHei-80"/>
      <use x="315.685547" xlink:href="#MicrosoftYaHei-111"/>
      <use x="379.259766" xlink:href="#MicrosoftYaHei-119"/>
      <use x="457.714844" xlink:href="#MicrosoftYaHei-101"/>
      <use x="514.453125" xlink:href="#MicrosoftYaHei-114"/>
      <use x="552.636719" xlink:href="#MicrosoftYaHei-40"/>
      <use x="586.035156" xlink:href="#MicrosoftYaHei-87"/>
      <use x="687.792969" xlink:href="#MicrosoftYaHei-41"/>
     </g>
    </g>
   </g>
   <g id="line2d_17">
    <path clip-path="url(#pfafa6fc003)" d="M 72 310.777007 
L 76.509091 310.881189 
L 81.018182 311.192845 
L 85.527273 311.709264 
L 90.036364 312.425812 
L 94.545455 313.335768 
L 99.054545 314.430125 
L 103.563636 315.697394 
L 108.072727 317.123451 
L 112.581818 318.691488 
L 117.090909 320.38213 
L 121.6 322.173757 
L 126.109091 324.043082 
L 130.618182 325.965939 
L 135.127273 327.918238 
L 139.636364 329.876966 
L 144.145455 331.821109 
L 148.654545 333.732376 
L 153.163636 335.595656 
L 157.672727 337.399174 
L 162.181818 339.134391 
L 166.690909 340.795711 
L 171.2 342.380065 
L 175.709091 343.886448 
L 180.218182 345.315463 
L 184.727273 346.668909 
L 189.236364 347.949428 
L 193.745455 349.160212 
L 198.254545 350.304782 
L 202.763636 351.386815 
L 207.272727 352.410018 
L 211.781818 353.378036 
L 216.290909 354.294398 
L 220.8 355.162473 
L 225.309091 355.985452 
L 229.818182 356.766332 
L 234.327273 357.507916 
L 238.836364 358.212816 
L 243.345455 358.883458 
L 247.854545 359.52209 
L 252.363636 360.130796 
L 256.872727 360.711503 
L 261.381818 361.265993 
L 265.890909 361.795914 
L 270.4 362.302789 
L 274.909091 362.788028 
L 279.418182 363.252935 
L 283.927273 363.698718 
L 288.436364 364.126495 
L 292.945455 364.537306 
L 297.454545 364.932112 
L 301.963636 365.311808 
L 306.472727 365.677227 
L 310.981818 366.02914 
L 315.490909 366.368269 
L 320 366.695286 
L 324.509091 367.010818 
L 329.018182 367.315448 
L 333.527273 367.609726 
L 338.036364 367.894162 
L 342.545455 368.169236 
L 347.054545 368.435397 
L 351.563636 368.693067 
L 356.072727 368.942641 
L 360.581818 369.184492 
L 365.090909 369.418969 
L 369.6 369.646402 
L 374.109091 369.8671 
L 378.618182 370.081356 
L 383.127273 370.289447 
L 387.636364 370.491632 
L 392.145455 370.688159 
L 396.654545 370.879259 
L 401.163636 371.065153 
L 405.672727 371.246051 
L 410.181818 371.422149 
L 414.690909 371.593635 
L 419.2 371.760688 
L 423.709091 371.923476 
L 428.218182 372.082161 
L 432.727273 372.236893 
L 437.236364 372.38782 
L 441.745455 372.535078 
L 446.254545 372.6788 
L 450.763636 372.819112 
L 455.272727 372.956132 
L 459.781818 373.089975 
L 464.290909 373.22075 
L 468.8 373.34856 
L 473.309091 373.473506 
L 477.818182 373.595682 
L 482.327273 373.715179 
L 486.836364 373.832085 
L 491.345455 373.946481 
L 495.854545 374.058449 
L 500.363636 374.168064 
L 504.872727 374.2754 
L 509.381818 374.380527 
L 513.890909 374.483512 
L 518.4 374.58442 
" style="fill:none;stroke:#007d65;stroke-linecap:square;stroke-width:2;"/>
   </g>
   <g id="line2d_18">
    <path clip-path="url(#pfafa6fc003)" d="M 72 318.105184 
L 76.509091 318.103914 
L 81.018182 318.100105 
L 85.527273 318.093756 
L 90.036364 318.084867 
L 94.545455 318.073439 
L 99.054545 318.059471 
L 103.563636 318.042964 
L 108.072727 318.023917 
L 112.581818 318.00233 
L 117.090909 317.978204 
L 121.6 317.951538 
L 126.109091 317.922333 
L 130.618182 317.890588 
L 135.127273 317.856304 
L 139.636364 317.81948 
L 144.145455 317.780116 
L 148.654545 317.738213 
L 153.163636 317.69377 
L 157.672727 317.646787 
L 162.181818 317.597265 
L 166.690909 317.545203 
L 171.2 317.490602 
L 175.709091 317.433461 
L 180.218182 317.373781 
L 184.727273 317.311561 
L 189.236364 317.246801 
L 193.745455 317.179502 
L 198.254545 317.109663 
L 202.763636 317.037285 
L 207.272727 316.962367 
L 211.781818 316.884909 
L 216.290909 316.804912 
L 220.8 316.722375 
L 225.309091 316.637299 
L 229.818182 316.549683 
L 234.327273 316.459527 
L 238.836364 316.366832 
L 243.345455 316.271597 
L 247.854545 316.173823 
L 252.363636 316.073509 
L 256.872727 315.970655 
L 261.381818 315.865262 
L 265.890909 315.75733 
L 270.4 315.646857 
L 274.909091 315.533845 
L 279.418182 315.418294 
L 283.927273 315.300203 
L 288.436364 315.179572 
L 292.945455 315.056402 
L 297.454545 314.930692 
L 301.963636 314.802442 
L 306.472727 314.671653 
L 310.981818 314.538325 
L 315.490909 314.402456 
L 320 314.264049 
L 324.509091 314.123101 
L 329.018182 313.979614 
L 333.527273 313.833588 
L 338.036364 313.685021 
L 342.545455 313.533915 
L 347.054545 313.38027 
L 351.563636 313.224085 
L 356.072727 313.06536 
L 360.581818 312.904096 
L 365.090909 312.740293 
L 369.6 312.573949 
L 374.109091 312.405066 
L 378.618182 312.233644 
L 383.127273 312.059681 
L 387.636364 311.88318 
L 392.145455 311.704138 
L 396.654545 311.522557 
L 401.163636 311.338437 
L 405.672727 311.151777 
L 410.181818 310.962577 
L 414.690909 310.770838 
L 419.2 310.576559 
L 423.709091 310.37974 
L 428.218182 310.180382 
L 432.727273 309.978485 
L 437.236364 309.774047 
L 441.745455 309.56707 
L 446.254545 309.357554 
L 450.763636 309.145498 
L 455.272727 308.930902 
L 459.781818 308.713767 
L 464.290909 308.494092 
L 468.8 308.271878 
L 473.309091 308.047124 
L 477.818182 307.81983 
L 482.327273 307.589997 
L 486.836364 307.357624 
L 491.345455 307.122712 
L 495.854545 306.88526 
L 500.363636 306.645268 
L 504.872727 306.402737 
L 509.381818 306.157666 
L 513.890909 305.910056 
L 518.4 305.659906 
" style="fill:none;stroke:#e85642;stroke-linecap:square;stroke-width:2;"/>
   </g>
   <g id="line2d_19">
    <path clip-path="url(#pfafa6fc003)" d="M 72 384.48 
L 76.509091 384.479786 
L 81.018182 384.478288 
L 85.527273 384.474221 
L 90.036364 384.466303 
L 94.545455 384.453247 
L 99.054545 384.433772 
L 103.563636 384.406591 
L 108.072727 384.370421 
L 112.581818 384.323979 
L 117.090909 384.265979 
L 121.6 384.195139 
L 126.109091 384.110172 
L 130.618182 384.009797 
L 135.127273 383.892727 
L 139.636364 383.75768 
L 144.145455 383.603371 
L 148.654545 383.428516 
L 153.163636 383.231832 
L 157.672727 383.012032 
L 162.181818 382.767835 
L 166.690909 382.497955 
L 171.2 382.201108 
L 175.709091 381.876011 
L 180.218182 381.521378 
L 184.727273 381.135927 
L 189.236364 380.718373 
L 193.745455 380.267431 
L 198.254545 379.781818 
L 202.763636 379.26025 
L 207.272727 378.701442 
L 211.781818 378.10411 
L 216.290909 377.466971 
L 220.8 376.78874 
L 225.309091 376.068132 
L 229.818182 375.303864 
L 234.327273 374.494652 
L 238.836364 373.639211 
L 243.345455 372.736258 
L 247.854545 371.784508 
L 252.363636 370.782678 
L 256.872727 369.729482 
L 261.381818 368.623637 
L 265.890909 367.463859 
L 270.4 366.248864 
L 274.909091 364.977367 
L 279.418182 363.648085 
L 283.927273 362.259733 
L 288.436364 360.811027 
L 292.945455 359.300683 
L 297.454545 357.727417 
L 301.963636 356.089945 
L 306.472727 354.386983 
L 310.981818 352.617246 
L 315.490909 350.779451 
L 320 348.872313 
L 324.509091 346.894548 
L 329.018182 344.844872 
L 333.527273 342.722001 
L 338.036364 340.524651 
L 342.545455 338.251537 
L 347.054545 335.901376 
L 351.563636 333.472884 
L 356.072727 330.964776 
L 360.581818 328.375768 
L 365.090909 325.704576 
L 369.6 322.949916 
L 374.109091 320.110504 
L 378.618182 317.185055 
L 383.127273 314.172287 
L 387.636364 311.070913 
L 392.145455 307.879651 
L 396.654545 304.597216 
L 401.163636 301.222324 
L 405.672727 297.753692 
L 410.181818 294.190034 
L 414.690909 290.530066 
L 419.2 286.772505 
L 423.709091 282.916067 
L 428.218182 278.959467 
L 432.727273 274.901421 
L 437.236364 270.740646 
L 441.745455 266.475856 
L 446.254545 262.105768 
L 450.763636 257.629098 
L 455.272727 253.044561 
L 459.781818 248.350874 
L 464.290909 243.546753 
L 468.8 238.630912 
L 473.309091 233.602069 
L 477.818182 228.458938 
L 482.327273 223.200236 
L 486.836364 217.824679 
L 491.345455 212.330983 
L 495.854545 206.717863 
L 500.363636 200.984036 
L 504.872727 195.128216 
L 509.381818 189.149121 
L 513.890909 183.045466 
L 518.4 176.815966 
" style="fill:none;stroke:#1699d3;stroke-linecap:square;stroke-width:2;"/>
   </g>
   <g id="line2d_20">
    <path clip-path="url(#pfafa6fc003)" d="M 72 244.402191 
L 76.509091 244.504889 
L 81.018182 244.811237 
L 85.527273 245.317241 
L 90.036364 246.016982 
L 94.545455 246.902455 
L 99.054545 247.963368 
L 103.563636 249.186949 
L 108.072727 250.557789 
L 112.581818 252.057798 
L 117.090909 253.666313 
L 121.6 255.360434 
L 126.109091 257.115587 
L 130.618182 258.906324 
L 135.127273 260.707269 
L 139.636364 262.494126 
L 144.145455 264.244596 
L 148.654545 265.939105 
L 153.163636 267.561258 
L 157.672727 269.097993 
L 162.181818 270.539491 
L 166.690909 271.878869 
L 171.2 273.111776 
L 175.709091 274.23592 
L 180.218182 275.250622 
L 184.727273 276.156397 
L 189.236364 276.954602 
L 193.745455 277.647145 
L 198.254545 278.236264 
L 202.763636 278.72435 
L 207.272727 279.113826 
L 211.781818 279.407055 
L 216.290909 279.606281 
L 220.8 279.713588 
L 225.309091 279.730883 
L 229.818182 279.659879 
L 234.327273 279.502096 
L 238.836364 279.25886 
L 243.345455 278.931313 
L 247.854545 278.520421 
L 252.363636 278.026983 
L 256.872727 277.451641 
L 261.381818 276.794893 
L 265.890909 276.057103 
L 270.4 275.23851 
L 274.909091 274.339241 
L 279.418182 273.359314 
L 283.927273 272.298653 
L 288.436364 271.157095 
L 292.945455 269.934391 
L 297.454545 268.630221 
L 301.963636 267.244196 
L 306.472727 265.775863 
L 310.981818 264.224711 
L 315.490909 262.590176 
L 320 260.871647 
L 324.509091 259.068466 
L 329.018182 257.179934 
L 333.527273 255.205314 
L 338.036364 253.143834 
L 342.545455 250.994689 
L 347.054545 248.757044 
L 351.563636 246.430036 
L 356.072727 244.012778 
L 360.581818 241.504356 
L 365.090909 238.903838 
L 369.6 236.210267 
L 374.109091 233.42267 
L 378.618182 230.540055 
L 383.127273 227.561415 
L 387.636364 224.485725 
L 392.145455 221.311948 
L 396.654545 218.039032 
L 401.163636 214.665915 
L 405.672727 211.191519 
L 410.181818 207.614759 
L 414.690909 203.934539 
L 419.2 200.149753 
L 423.709091 196.259284 
L 428.218182 192.26201 
L 432.727273 188.156799 
L 437.236364 183.942513 
L 441.745455 179.618005 
L 446.254545 175.182123 
L 450.763636 170.633708 
L 455.272727 165.971595 
L 459.781818 161.194616 
L 464.290909 156.301594 
L 468.8 151.29135 
L 473.309091 146.162698 
L 477.818182 140.91445 
L 482.327273 135.545413 
L 486.836364 130.054388 
L 491.345455 124.440176 
L 495.854545 118.701572 
L 500.363636 112.837368 
L 504.872727 106.846353 
L 509.381818 100.727314 
L 513.890909 94.479034 
L 518.4 88.100292 
" style="fill:none;stroke:#052e65;stroke-linecap:square;stroke-width:3;"/>
   </g>
   <g id="patch_3">
    <path d="M 72 384.48 
L 72 51.84 
" style="fill:none;stroke:#000000;stroke-linecap:square;stroke-linejoin:miter;stroke-width:0.8;"/>
   </g>
   <g id="patch_4">
    <path d="M 518.4 384.48 
L 518.4 51.84 
" style="fill:none;stroke:#000000;stroke-linecap:square;stroke-linejoin:miter;stroke-width:0.8;"/>
   </g>
   <g id="patch_5">
    <path d="M 72 384.48 
L 518.4 384.48 
" style="fill:none;stroke:#000000;stroke-linecap:square;stroke-linejoin:miter;stroke-width:0.8;"/>
   </g>
   <g id="patch_6">
    <path d="M 72 51.84 
L 518.4 51.84 
" style="fill:none;stroke:#000000;stroke-linecap:square;stroke-linejoin:miter;stroke-width:0.8;"/>
   </g>
   <g id="text_19">
    <!-- Total Power for Forward Flight -->
    <g transform="translate(136.657344 45.84)scale(0.22 -0.22)">
     <defs>
      <path d="M 36.234375 71.78125 
Q 33.546875 73.1875 30.421875 73.1875 
Q 21.4375 73.1875 21.4375 62.0625 
L 21.4375 54 
L 34.078125 54 
L 34.078125 46.09375 
L 21.4375 46.09375 
L 21.4375 0 
L 11.96875 0 
L 11.96875 46.09375 
L 2.734375 46.09375 
L 2.734375 54 
L 11.96875 54 
L 11.96875 62.5 
Q 11.96875 71.1875 16.96875 76.140625 
Q 21.96875 81.109375 29.6875 81.109375 
Q 33.796875 81.109375 36.234375 80.171875 
z
" id="MicrosoftYaHei-102"/>
      <path d="M 48.734375 66.9375 
L 19.53125 66.9375 
L 19.53125 41.65625 
L 46.578125 41.65625 
L 46.578125 33.0625 
L 19.53125 33.0625 
L 19.53125 0 
L 9.765625 0 
L 9.765625 75.640625 
L 48.734375 75.640625 
z
" id="MicrosoftYaHei-70"/>
      <path d="M 7.375 73.046875 
Q 7.375 75.59375 9.109375 77.3125 
Q 10.84375 79.046875 13.375 79.046875 
Q 15.96875 79.046875 17.75 77.34375 
Q 19.53125 75.640625 19.53125 73.046875 
Q 19.53125 70.515625 17.75 68.828125 
Q 15.96875 67.140625 13.375 67.140625 
Q 10.796875 67.140625 9.078125 68.828125 
Q 7.375 70.515625 7.375 73.046875 
z
M 8.5 0 
L 8.5 54 
L 18.0625 54 
L 18.0625 0 
z
" id="MicrosoftYaHei-105"/>
      <path d="M 55.421875 4.546875 
Q 55.421875 -25.4375 26.3125 -25.4375 
Q 16.265625 -25.4375 8.84375 -21.6875 
L 8.84375 -12.453125 
Q 17.875 -17.484375 26.171875 -17.484375 
Q 45.84375 -17.484375 45.84375 3.21875 
L 45.84375 8.9375 
L 45.65625 8.9375 
Q 39.5 -1.265625 27.296875 -1.265625 
Q 17.140625 -1.265625 11.03125 6 
Q 4.9375 13.28125 4.9375 25.296875 
Q 4.9375 39.109375 11.671875 47.1875 
Q 18.40625 55.28125 29.640625 55.28125 
Q 40.4375 55.28125 45.65625 46.6875 
L 45.84375 46.6875 
L 45.84375 54 
L 55.421875 54 
z
M 45.84375 32.125 
Q 45.90625 38.375 41.65625 42.859375 
Q 37.40625 47.359375 31.203125 47.359375 
Q 23.390625 47.359375 19.046875 41.625 
Q 14.703125 35.890625 14.703125 25.875 
Q 14.703125 17.28125 18.890625 11.953125 
Q 23.09375 6.640625 30.03125 6.640625 
Q 37.015625 6.640625 41.453125 11.71875 
Q 45.90625 16.796875 45.84375 24.609375 
z
" id="MicrosoftYaHei-103"/>
      <path d="M 54.15625 0 
L 44.625 0 
L 44.625 31.0625 
Q 44.625 47.359375 32.515625 47.359375 
Q 26.3125 47.359375 22.203125 42.59375 
Q 18.109375 37.84375 18.109375 30.609375 
L 18.109375 0 
L 8.546875 0 
L 8.546875 79.9375 
L 18.109375 79.9375 
L 18.109375 45.125 
L 18.3125 45.125 
Q 24.515625 55.28125 35.9375 55.28125 
Q 54.15625 55.28125 54.15625 33.25 
z
" id="MicrosoftYaHei-104"/>
     </defs>
     <use xlink:href="#MicrosoftYaHei-84"/>
     <use x="46.199219" xlink:href="#MicrosoftYaHei-111"/>
     <use x="109.773438" xlink:href="#MicrosoftYaHei-116"/>
     <use x="147.029297" xlink:href="#MicrosoftYaHei-97"/>
     <use x="202.302734" xlink:href="#MicrosoftYaHei-108"/>
     <use x="228.914062" xlink:href="#MicrosoftYaHei-32"/>
     <use x="258.503906" xlink:href="#MicrosoftYaHei-80"/>
     <use x="315.685547" xlink:href="#MicrosoftYaHei-111"/>
     <use x="379.259766" xlink:href="#MicrosoftYaHei-119"/>
     <use x="457.714844" xlink:href="#MicrosoftYaHei-101"/>
     <use x="514.453125" xlink:href="#MicrosoftYaHei-114"/>
     <use x="552.636719" xlink:href="#MicrosoftYaHei-32"/>
     <use x="582.226562" xlink:href="#MicrosoftYaHei-102"/>
     <use x="616.894531" xlink:href="#MicrosoftYaHei-111"/>
     <use x="680.46875" xlink:href="#MicrosoftYaHei-114"/>
     <use x="718.652344" xlink:href="#MicrosoftYaHei-32"/>
     <use x="748.242188" xlink:href="#MicrosoftYaHei-70"/>
     <use x="801.367188" xlink:href="#MicrosoftYaHei-111"/>
     <use x="864.941406" xlink:href="#MicrosoftYaHei-114"/>
     <use x="907.5" xlink:href="#MicrosoftYaHei-119"/>
     <use x="986.455078" xlink:href="#MicrosoftYaHei-97"/>
     <use x="1041.728516" xlink:href="#MicrosoftYaHei-114"/>
     <use x="1078.537109" xlink:href="#MicrosoftYaHei-100"/>
     <use x="1142.501953" xlink:href="#MicrosoftYaHei-32"/>
     <use x="1172.091797" xlink:href="#MicrosoftYaHei-70"/>
     <use x="1225.216797" xlink:href="#MicrosoftYaHei-108"/>
     <use x="1251.828125" xlink:href="#MicrosoftYaHei-105"/>
     <use x="1278.439453" xlink:href="#MicrosoftYaHei-103"/>
     <use x="1342.404297" xlink:href="#MicrosoftYaHei-104"/>
     <use x="1403.976562" xlink:href="#MicrosoftYaHei-116"/>
    </g>
   </g>
   <g id="legend_1">
    <g id="patch_7">
     <path d="M 79 118.5525 
L 184.414062 118.5525 
Q 186.414062 118.5525 186.414062 116.5525 
L 186.414062 58.84 
Q 186.414062 56.84 184.414062 56.84 
L 79 56.84 
Q 77 56.84 77 58.84 
L 77 116.5525 
Q 77 118.5525 79 118.5525 
z
" style="fill:#ffffff;opacity:0.8;stroke:#cccccc;stroke-linejoin:miter;"/>
    </g>
    <g id="line2d_21">
     <path d="M 81 64.938438 
L 101 64.938438 
" style="fill:none;stroke:#007d65;stroke-linecap:square;stroke-width:2;"/>
    </g>
    <g id="line2d_22"/>
    <g id="text_20">
     <!-- Induced Power -->
     <g transform="translate(109 68.438438)scale(0.1 -0.1)">
      <defs>
       <path d="M 9.8125 72.90625 
L 19.671875 72.90625 
L 19.671875 0 
L 9.8125 0 
z
" id="DejaVuSans-73"/>
       <path d="M 54.890625 33.015625 
L 54.890625 0 
L 45.90625 0 
L 45.90625 32.71875 
Q 45.90625 40.484375 42.875 44.328125 
Q 39.84375 48.1875 33.796875 48.1875 
Q 26.515625 48.1875 22.3125 43.546875 
Q 18.109375 38.921875 18.109375 30.90625 
L 18.109375 0 
L 9.078125 0 
L 9.078125 54.6875 
L 18.109375 54.6875 
L 18.109375 46.1875 
Q 21.34375 51.125 25.703125 53.5625 
Q 30.078125 56 35.796875 56 
Q 45.21875 56 50.046875 50.171875 
Q 54.890625 44.34375 54.890625 33.015625 
z
" id="DejaVuSans-110"/>
       <path d="M 45.40625 46.390625 
L 45.40625 75.984375 
L 54.390625 75.984375 
L 54.390625 0 
L 45.40625 0 
L 45.40625 8.203125 
Q 42.578125 3.328125 38.25 0.953125 
Q 33.9375 -1.421875 27.875 -1.421875 
Q 17.96875 -1.421875 11.734375 6.484375 
Q 5.515625 14.40625 5.515625 27.296875 
Q 5.515625 40.1875 11.734375 48.09375 
Q 17.96875 56 27.875 56 
Q 33.9375 56 38.25 53.625 
Q 42.578125 51.265625 45.40625 46.390625 
z
M 14.796875 27.296875 
Q 14.796875 17.390625 18.875 11.75 
Q 22.953125 6.109375 30.078125 6.109375 
Q 37.203125 6.109375 41.296875 11.75 
Q 45.40625 17.390625 45.40625 27.296875 
Q 45.40625 37.203125 41.296875 42.84375 
Q 37.203125 48.484375 30.078125 48.484375 
Q 22.953125 48.484375 18.875 42.84375 
Q 14.796875 37.203125 14.796875 27.296875 
z
" id="DejaVuSans-100"/>
       <path d="M 8.5 21.578125 
L 8.5 54.6875 
L 17.484375 54.6875 
L 17.484375 21.921875 
Q 17.484375 14.15625 20.5 10.265625 
Q 23.53125 6.390625 29.59375 6.390625 
Q 36.859375 6.390625 41.078125 11.03125 
Q 45.3125 15.671875 45.3125 23.6875 
L 45.3125 54.6875 
L 54.296875 54.6875 
L 54.296875 0 
L 45.3125 0 
L 45.3125 8.40625 
Q 42.046875 3.421875 37.71875 1 
Q 33.40625 -1.421875 27.6875 -1.421875 
Q 18.265625 -1.421875 13.375 4.4375 
Q 8.5 10.296875 8.5 21.578125 
z
M 31.109375 56 
z
" id="DejaVuSans-117"/>
       <path d="M 48.78125 52.59375 
L 48.78125 44.1875 
Q 44.96875 46.296875 41.140625 47.34375 
Q 37.3125 48.390625 33.40625 48.390625 
Q 24.65625 48.390625 19.8125 42.84375 
Q 14.984375 37.3125 14.984375 27.296875 
Q 14.984375 17.28125 19.8125 11.734375 
Q 24.65625 6.203125 33.40625 6.203125 
Q 37.3125 6.203125 41.140625 7.25 
Q 44.96875 8.296875 48.78125 10.40625 
L 48.78125 2.09375 
Q 45.015625 0.34375 40.984375 -0.53125 
Q 36.96875 -1.421875 32.421875 -1.421875 
Q 20.0625 -1.421875 12.78125 6.34375 
Q 5.515625 14.109375 5.515625 27.296875 
Q 5.515625 40.671875 12.859375 48.328125 
Q 20.21875 56 33.015625 56 
Q 37.15625 56 41.109375 55.140625 
Q 45.0625 54.296875 48.78125 52.59375 
z
" id="DejaVuSans-99"/>
       <path d="M 56.203125 29.59375 
L 56.203125 25.203125 
L 14.890625 25.203125 
Q 15.484375 15.921875 20.484375 11.0625 
Q 25.484375 6.203125 34.421875 6.203125 
Q 39.59375 6.203125 44.453125 7.46875 
Q 49.3125 8.734375 54.109375 11.28125 
L 54.109375 2.78125 
Q 49.265625 0.734375 44.1875 -0.34375 
Q 39.109375 -1.421875 33.890625 -1.421875 
Q 20.796875 -1.421875 13.15625 6.1875 
Q 5.515625 13.8125 5.515625 26.8125 
Q 5.515625 40.234375 12.765625 48.109375 
Q 20.015625 56 32.328125 56 
Q 43.359375 56 49.78125 48.890625 
Q 56.203125 41.796875 56.203125 29.59375 
z
M 47.21875 32.234375 
Q 47.125 39.59375 43.09375 43.984375 
Q 39.0625 48.390625 32.421875 48.390625 
Q 24.90625 48.390625 20.390625 44.140625 
Q 15.875 39.890625 15.1875 32.171875 
z
" id="DejaVuSans-101"/>
       <path id="DejaVuSans-32"/>
       <path d="M 19.671875 64.796875 
L 19.671875 37.40625 
L 32.078125 37.40625 
Q 38.96875 37.40625 42.71875 40.96875 
Q 46.484375 44.53125 46.484375 51.125 
Q 46.484375 57.671875 42.71875 61.234375 
Q 38.96875 64.796875 32.078125 64.796875 
z
M 9.8125 72.90625 
L 32.078125 72.90625 
Q 44.34375 72.90625 50.609375 67.359375 
Q 56.890625 61.8125 56.890625 51.125 
Q 56.890625 40.328125 50.609375 34.8125 
Q 44.34375 29.296875 32.078125 29.296875 
L 19.671875 29.296875 
L 19.671875 0 
L 9.8125 0 
z
" id="DejaVuSans-80"/>
       <path d="M 30.609375 48.390625 
Q 23.390625 48.390625 19.1875 42.75 
Q 14.984375 37.109375 14.984375 27.296875 
Q 14.984375 17.484375 19.15625 11.84375 
Q 23.34375 6.203125 30.609375 6.203125 
Q 37.796875 6.203125 41.984375 11.859375 
Q 46.1875 17.53125 46.1875 27.296875 
Q 46.1875 37.015625 41.984375 42.703125 
Q 37.796875 48.390625 30.609375 48.390625 
z
M 30.609375 56 
Q 42.328125 56 49.015625 48.375 
Q 55.71875 40.765625 55.71875 27.296875 
Q 55.71875 13.875 49.015625 6.21875 
Q 42.328125 -1.421875 30.609375 -1.421875 
Q 18.84375 -1.421875 12.171875 6.21875 
Q 5.515625 13.875 5.515625 27.296875 
Q 5.515625 40.765625 12.171875 48.375 
Q 18.84375 56 30.609375 56 
z
" id="DejaVuSans-111"/>
       <path d="M 4.203125 54.6875 
L 13.1875 54.6875 
L 24.421875 12.015625 
L 35.59375 54.6875 
L 46.1875 54.6875 
L 57.421875 12.015625 
L 68.609375 54.6875 
L 77.59375 54.6875 
L 63.28125 0 
L 52.6875 0 
L 40.921875 44.828125 
L 29.109375 0 
L 18.5 0 
z
" id="DejaVuSans-119"/>
       <path d="M 41.109375 46.296875 
Q 39.59375 47.171875 37.8125 47.578125 
Q 36.03125 48 33.890625 48 
Q 26.265625 48 22.1875 43.046875 
Q 18.109375 38.09375 18.109375 28.8125 
L 18.109375 0 
L 9.078125 0 
L 9.078125 54.6875 
L 18.109375 54.6875 
L 18.109375 46.1875 
Q 20.953125 51.171875 25.484375 53.578125 
Q 30.03125 56 36.53125 56 
Q 37.453125 56 38.578125 55.875 
Q 39.703125 55.765625 41.0625 55.515625 
z
" id="DejaVuSans-114"/>
      </defs>
      <use xlink:href="#DejaVuSans-73"/>
      <use x="29.492188" xlink:href="#DejaVuSans-110"/>
      <use x="92.871094" xlink:href="#DejaVuSans-100"/>
      <use x="156.347656" xlink:href="#DejaVuSans-117"/>
      <use x="219.726562" xlink:href="#DejaVuSans-99"/>
      <use x="274.707031" xlink:href="#DejaVuSans-101"/>
      <use x="336.230469" xlink:href="#DejaVuSans-100"/>
      <use x="399.707031" xlink:href="#DejaVuSans-32"/>
      <use x="431.494141" xlink:href="#DejaVuSans-80"/>
      <use x="488.171875" xlink:href="#DejaVuSans-111"/>
      <use x="549.353516" xlink:href="#DejaVuSans-119"/>
      <use x="631.140625" xlink:href="#DejaVuSans-101"/>
      <use x="692.664062" xlink:href="#DejaVuSans-114"/>
     </g>
    </g>
    <g id="line2d_23">
     <path d="M 81 79.616563 
L 101 79.616563 
" style="fill:none;stroke:#e85642;stroke-linecap:square;stroke-width:2;"/>
    </g>
    <g id="line2d_24"/>
    <g id="text_21">
     <!-- Profile Power -->
     <g transform="translate(109 83.116563)scale(0.1 -0.1)">
      <defs>
       <path d="M 37.109375 75.984375 
L 37.109375 68.5 
L 28.515625 68.5 
Q 23.6875 68.5 21.796875 66.546875 
Q 19.921875 64.59375 19.921875 59.515625 
L 19.921875 54.6875 
L 34.71875 54.6875 
L 34.71875 47.703125 
L 19.921875 47.703125 
L 19.921875 0 
L 10.890625 0 
L 10.890625 47.703125 
L 2.296875 47.703125 
L 2.296875 54.6875 
L 10.890625 54.6875 
L 10.890625 58.5 
Q 10.890625 67.625 15.140625 71.796875 
Q 19.390625 75.984375 28.609375 75.984375 
z
" id="DejaVuSans-102"/>
       <path d="M 9.421875 54.6875 
L 18.40625 54.6875 
L 18.40625 0 
L 9.421875 0 
z
M 9.421875 75.984375 
L 18.40625 75.984375 
L 18.40625 64.59375 
L 9.421875 64.59375 
z
" id="DejaVuSans-105"/>
       <path d="M 9.421875 75.984375 
L 18.40625 75.984375 
L 18.40625 0 
L 9.421875 0 
z
" id="DejaVuSans-108"/>
      </defs>
      <use xlink:href="#DejaVuSans-80"/>
      <use x="58.552734" xlink:href="#DejaVuSans-114"/>
      <use x="97.416016" xlink:href="#DejaVuSans-111"/>
      <use x="158.597656" xlink:href="#DejaVuSans-102"/>
      <use x="193.802734" xlink:href="#DejaVuSans-105"/>
      <use x="221.585938" xlink:href="#DejaVuSans-108"/>
      <use x="249.369141" xlink:href="#DejaVuSans-101"/>
      <use x="310.892578" xlink:href="#DejaVuSans-32"/>
      <use x="342.679688" xlink:href="#DejaVuSans-80"/>
      <use x="399.357422" xlink:href="#DejaVuSans-111"/>
      <use x="460.539062" xlink:href="#DejaVuSans-119"/>
      <use x="542.326172" xlink:href="#DejaVuSans-101"/>
      <use x="603.849609" xlink:href="#DejaVuSans-114"/>
     </g>
    </g>
    <g id="line2d_25">
     <path d="M 81 94.294688 
L 101 94.294688 
" style="fill:none;stroke:#1699d3;stroke-linecap:square;stroke-width:2;"/>
    </g>
    <g id="line2d_26"/>
    <g id="text_22">
     <!-- Parasite Power -->
     <g transform="translate(109 97.794688)scale(0.1 -0.1)">
      <defs>
       <path d="M 34.28125 27.484375 
Q 23.390625 27.484375 19.1875 25 
Q 14.984375 22.515625 14.984375 16.5 
Q 14.984375 11.71875 18.140625 8.90625 
Q 21.296875 6.109375 26.703125 6.109375 
Q 34.1875 6.109375 38.703125 11.40625 
Q 43.21875 16.703125 43.21875 25.484375 
L 43.21875 27.484375 
z
M 52.203125 31.203125 
L 52.203125 0 
L 43.21875 0 
L 43.21875 8.296875 
Q 40.140625 3.328125 35.546875 0.953125 
Q 30.953125 -1.421875 24.3125 -1.421875 
Q 15.921875 -1.421875 10.953125 3.296875 
Q 6 8.015625 6 15.921875 
Q 6 25.140625 12.171875 29.828125 
Q 18.359375 34.515625 30.609375 34.515625 
L 43.21875 34.515625 
L 43.21875 35.40625 
Q 43.21875 41.609375 39.140625 45 
Q 35.0625 48.390625 27.6875 48.390625 
Q 23 48.390625 18.546875 47.265625 
Q 14.109375 46.140625 10.015625 43.890625 
L 10.015625 52.203125 
Q 14.9375 54.109375 19.578125 55.046875 
Q 24.21875 56 28.609375 56 
Q 40.484375 56 46.34375 49.84375 
Q 52.203125 43.703125 52.203125 31.203125 
z
" id="DejaVuSans-97"/>
       <path d="M 44.28125 53.078125 
L 44.28125 44.578125 
Q 40.484375 46.53125 36.375 47.5 
Q 32.28125 48.484375 27.875 48.484375 
Q 21.1875 48.484375 17.84375 46.4375 
Q 14.5 44.390625 14.5 40.28125 
Q 14.5 37.15625 16.890625 35.375 
Q 19.28125 33.59375 26.515625 31.984375 
L 29.59375 31.296875 
Q 39.15625 29.25 43.1875 25.515625 
Q 47.21875 21.78125 47.21875 15.09375 
Q 47.21875 7.46875 41.1875 3.015625 
Q 35.15625 -1.421875 24.609375 -1.421875 
Q 20.21875 -1.421875 15.453125 -0.5625 
Q 10.6875 0.296875 5.421875 2 
L 5.421875 11.28125 
Q 10.40625 8.6875 15.234375 7.390625 
Q 20.0625 6.109375 24.8125 6.109375 
Q 31.15625 6.109375 34.5625 8.28125 
Q 37.984375 10.453125 37.984375 14.40625 
Q 37.984375 18.0625 35.515625 20.015625 
Q 33.0625 21.96875 24.703125 23.78125 
L 21.578125 24.515625 
Q 13.234375 26.265625 9.515625 29.90625 
Q 5.8125 33.546875 5.8125 39.890625 
Q 5.8125 47.609375 11.28125 51.796875 
Q 16.75 56 26.8125 56 
Q 31.78125 56 36.171875 55.265625 
Q 40.578125 54.546875 44.28125 53.078125 
z
" id="DejaVuSans-115"/>
       <path d="M 18.3125 70.21875 
L 18.3125 54.6875 
L 36.8125 54.6875 
L 36.8125 47.703125 
L 18.3125 47.703125 
L 18.3125 18.015625 
Q 18.3125 11.328125 20.140625 9.421875 
Q 21.96875 7.515625 27.59375 7.515625 
L 36.8125 7.515625 
L 36.8125 0 
L 27.59375 0 
Q 17.1875 0 13.234375 3.875 
Q 9.28125 7.765625 9.28125 18.015625 
L 9.28125 47.703125 
L 2.6875 47.703125 
L 2.6875 54.6875 
L 9.28125 54.6875 
L 9.28125 70.21875 
z
" id="DejaVuSans-116"/>
      </defs>
      <use xlink:href="#DejaVuSans-80"/>
      <use x="55.802734" xlink:href="#DejaVuSans-97"/>
      <use x="117.082031" xlink:href="#DejaVuSans-114"/>
      <use x="158.195312" xlink:href="#DejaVuSans-97"/>
      <use x="219.474609" xlink:href="#DejaVuSans-115"/>
      <use x="271.574219" xlink:href="#DejaVuSans-105"/>
      <use x="299.357422" xlink:href="#DejaVuSans-116"/>
      <use x="338.566406" xlink:href="#DejaVuSans-101"/>
      <use x="400.089844" xlink:href="#DejaVuSans-32"/>
      <use x="431.876953" xlink:href="#DejaVuSans-80"/>
      <use x="488.554688" xlink:href="#DejaVuSans-111"/>
      <use x="549.736328" xlink:href="#DejaVuSans-119"/>
      <use x="631.523438" xlink:href="#DejaVuSans-101"/>
      <use x="693.046875" xlink:href="#DejaVuSans-114"/>
     </g>
    </g>
    <g id="line2d_27">
     <path d="M 81 108.972813 
L 101 108.972813 
" style="fill:none;stroke:#052e65;stroke-linecap:square;stroke-width:3;"/>
    </g>
    <g id="line2d_28"/>
    <g id="text_23">
     <!-- Total Power -->
     <g transform="translate(109 112.472813)scale(0.1 -0.1)">
      <defs>
       <path d="M -0.296875 72.90625 
L 61.375 72.90625 
L 61.375 64.59375 
L 35.5 64.59375 
L 35.5 0 
L 25.59375 0 
L 25.59375 64.59375 
L -0.296875 64.59375 
z
" id="DejaVuSans-84"/>
      </defs>
      <use xlink:href="#DejaVuSans-84"/>
      <use x="44.083984" xlink:href="#DejaVuSans-111"/>
      <use x="105.265625" xlink:href="#DejaVuSans-116"/>
      <use x="144.474609" xlink:href="#DejaVuSans-97"/>
      <use x="205.753906" xlink:href="#DejaVuSans-108"/>
      <use x="233.537109" xlink:href="#DejaVuSans-32"/>
      <use x="265.324219" xlink:href="#DejaVuSans-80"/>
      <use x="322.001953" xlink:href="#DejaVuSans-111"/>
      <use x="383.183594" xlink:href="#DejaVuSans-119"/>
      <use x="464.970703" xlink:href="#DejaVuSans-101"/>
      <use x="526.494141" xlink:href="#DejaVuSans-114"/>
     </g>
    </g>
   </g>
  </g>
 </g>
 <defs>
  <clipPath id="pfafa6fc003">
   <rect height="332.64" width="446.4" x="72" y="51.84"/>
  </clipPath>
 </defs>
</svg>
